<svg width="422" height="422" viewBox="0 0 422 422" fill="none" xmlns="http://www.w3.org/2000/svg">
<path d="M211 422L28.2686 105.5L393.731 105.5L211 422Z" fill="url(#paint0_linear_903_181)"/>
<path d="M211 105.5L302.452 263.6H119.548L211 105.5Z" fill="black"/>
<path d="M205.364 294.615C191.206 298.62 184.073 313.015 186.451 332.877C187.802 344.188 192.827 353.388 200.608 358.692C203.635 360.803 207.958 362.697 208.66 362.264C208.93 362.102 209.146 360.911 209.146 359.612C209.146 357.501 208.93 357.123 207.525 356.365C204.283 354.687 204.283 354.741 204.283 327.898V303.49L206.715 301.001C208.93 298.782 209.2 298.241 209.038 296.347C208.93 295.156 208.66 294.182 208.336 294.074C208.066 294.019 206.715 294.29 205.364 294.615Z" fill="white"/>
<path d="M214.388 294.181C214.172 294.397 214.01 295.48 214.01 296.616C214.01 298.456 214.172 298.727 215.901 299.268C218.873 300.242 219.035 301.162 216.874 305.167C215.253 308.198 215.036 309.118 215.253 311.337C215.577 314.746 217.09 316.37 220.44 316.857C225.736 317.561 230.005 315.396 231.248 311.229C233.409 303.977 229.897 297.212 222.926 295.263C219.359 294.235 214.874 293.694 214.388 294.181Z" fill="white"/>
<path d="M216.982 324.704C212.01 325.408 211.794 325.57 211.956 328.114C212.118 330.278 212.226 330.387 214.118 330.711C217.792 331.307 217.792 331.198 217.792 343.159C217.792 349.058 217.576 354.47 217.252 355.227C216.982 356.039 216.117 356.905 215.361 357.284C214.226 357.825 214.01 358.258 214.01 360.315V362.75L216.874 362.371C220.872 361.83 226.979 358.799 229.951 355.823C237.786 347.975 238.056 332.173 230.491 326.923C227.087 324.596 222.656 323.838 216.982 324.704Z" fill="white"/>
<path d="M109.734 129.614C95.5763 133.619 88.4434 148.016 90.8211 167.879C92.172 179.19 97.1974 188.391 104.979 193.695C108.005 195.806 112.328 197.7 113.03 197.267C113.3 197.105 113.517 195.914 113.517 194.615C113.517 192.504 113.3 192.125 111.896 191.368C108.653 189.69 108.653 189.744 108.653 162.899V138.49L111.085 136C113.3 133.781 113.571 133.24 113.409 131.346C113.3 130.155 113.03 129.181 112.706 129.073C112.436 129.019 111.085 129.289 109.734 129.614Z" fill="white"/>
<path d="M118.758 129.181C118.542 129.397 118.38 130.48 118.38 131.616C118.38 133.457 118.542 133.727 120.271 134.268C123.243 135.243 123.405 136.163 121.244 140.168C119.623 143.199 119.407 144.119 119.623 146.338C119.947 149.748 121.46 151.371 124.81 151.858C130.106 152.562 134.375 150.397 135.618 146.23C137.779 138.977 134.267 132.212 127.296 130.263C123.73 129.235 119.245 128.694 118.758 129.181Z" fill="white"/>
<path d="M121.352 159.706C116.381 160.41 116.164 160.572 116.327 163.116C116.489 165.281 116.597 165.389 118.488 165.714C122.163 166.309 122.163 166.201 122.163 178.162C122.163 184.061 121.946 189.473 121.622 190.231C121.352 191.043 120.487 191.909 119.731 192.288C118.596 192.829 118.38 193.262 118.38 195.319V197.754L121.244 197.375C125.243 196.834 131.349 193.803 134.321 190.826C142.156 182.979 142.426 167.175 134.861 161.925C131.457 159.598 127.026 158.84 121.352 159.706Z" fill="white"/>
<path d="M299.911 129.486C299.291 129.712 297.376 131.233 295.629 132.811C293.882 134.388 292.361 135.684 292.192 135.684C292.023 135.684 291.797 134.332 291.685 132.698C291.516 129.881 291.459 129.768 289.825 129.768H288.191L286.332 140.755C284.529 151.799 284.529 152.532 286.501 152.588C287.402 152.588 288.079 151.574 289.205 148.531C289.994 146.39 290.614 145.658 292.586 144.756C295.629 143.235 296.305 143.291 304.757 145.038C314.11 146.953 318.956 146.784 322.393 144.305C325.041 142.333 326.901 139.121 327.915 134.67C328.816 130.782 328.028 129.712 325.83 131.909C323.971 133.825 322.449 133.825 317.829 131.966C311.631 129.486 302.897 128.247 299.911 129.486Z" fill="white"/>
<path d="M316.871 151.968C312.927 154.391 302.785 166.336 299.461 172.422C295.066 180.479 294.108 187.41 296.7 192.424C298.446 195.749 300.249 196.763 304.982 196.988C309.828 197.27 311.8 196.481 314.167 193.326C315.632 191.466 315.744 190.847 315.744 186.452C315.744 183.803 315.406 178.789 314.956 175.352C313.998 167.181 314.674 162.618 317.773 156.758C320.872 150.954 320.59 149.658 316.871 151.968Z" fill="white"/>
<defs>
<linearGradient id="paint0_linear_903_181" x1="229" y1="319.5" x2="356.5" y2="94.5" gradientUnits="userSpaceOnUse">
<stop stop-color="#121513"/>
<stop offset="0.955577" stop-color="#27A91B"/>
</linearGradient>
</defs>
</svg>
