<svg width="1985" height="450" viewBox="0 0 1985 450" fill="none" xmlns="http://www.w3.org/2000/svg">
<rect width="1985" height="450" fill="url(#paint0_linear_903_181)"/>
<path d="M993 422L810.269 105.5L1175.73 105.5L993 422Z" fill="url(#paint1_linear_903_181)"/>
<path d="M993 105.5L1084.45 263.6H901.548L993 105.5Z" fill="black"/>
<path d="M987.364 294.615C973.206 298.62 966.073 313.015 968.451 332.877C969.802 344.188 974.827 353.388 982.608 358.692C985.635 360.803 989.958 362.697 990.66 362.264C990.93 362.102 991.146 360.911 991.146 359.612C991.146 357.501 990.93 357.123 989.525 356.365C986.283 354.687 986.283 354.741 986.283 327.898V303.49L988.715 301.001C990.93 298.782 991.2 298.241 991.038 296.347C990.93 295.156 990.66 294.182 990.336 294.074C990.066 294.019 988.715 294.29 987.364 294.615Z" fill="white"/>
<path d="M996.388 294.181C996.172 294.397 996.01 295.48 996.01 296.616C996.01 298.456 996.172 298.727 997.901 299.268C1000.87 300.242 1001.04 301.162 998.874 305.167C997.253 308.198 997.036 309.118 997.253 311.337C997.577 314.746 999.09 316.37 1002.44 316.857C1007.74 317.561 1012 315.396 1013.25 311.229C1015.41 303.977 1011.9 297.212 1004.93 295.263C1001.36 294.235 996.874 293.694 996.388 294.181Z" fill="white"/>
<path d="M998.982 324.704C994.01 325.408 993.794 325.57 993.956 328.114C994.118 330.278 994.226 330.387 996.118 330.711C999.792 331.307 999.792 331.198 999.792 343.159C999.792 349.058 999.576 354.47 999.252 355.227C998.982 356.039 998.117 356.905 997.361 357.284C996.226 357.825 996.01 358.258 996.01 360.315V362.75L998.874 362.371C1002.87 361.83 1008.98 358.799 1011.95 355.823C1019.79 347.975 1020.06 332.173 1012.49 326.923C1009.09 324.596 1004.66 323.838 998.982 324.704Z" fill="white"/>
<path d="M891.734 129.614C877.576 133.619 870.443 148.016 872.821 167.879C874.172 179.19 879.197 188.391 886.979 193.695C890.005 195.806 894.328 197.7 895.03 197.267C895.3 197.105 895.517 195.914 895.517 194.615C895.517 192.504 895.3 192.125 893.895 191.368C890.653 189.69 890.653 189.744 890.653 162.899V138.49L893.085 136C895.3 133.781 895.571 133.24 895.409 131.346C895.3 130.155 895.03 129.181 894.706 129.073C894.436 129.019 893.085 129.289 891.734 129.614Z" fill="white"/>
<path d="M900.758 129.181C900.542 129.397 900.38 130.48 900.38 131.616C900.38 133.457 900.542 133.727 902.271 134.268C905.243 135.243 905.405 136.163 903.244 140.168C901.623 143.199 901.407 144.119 901.623 146.338C901.947 149.748 903.46 151.371 906.81 151.858C912.106 152.562 916.375 150.397 917.618 146.23C919.779 138.977 916.267 132.212 909.296 130.263C905.73 129.235 901.245 128.694 900.758 129.181Z" fill="white"/>
<path d="M903.352 159.706C898.381 160.41 898.164 160.572 898.327 163.116C898.489 165.281 898.597 165.389 900.488 165.714C904.163 166.309 904.163 166.201 904.163 178.162C904.163 184.061 903.946 189.473 903.622 190.231C903.352 191.043 902.487 191.909 901.731 192.288C900.596 192.829 900.38 193.262 900.38 195.319V197.754L903.244 197.375C907.243 196.834 913.349 193.803 916.321 190.826C924.156 182.979 924.426 167.175 916.861 161.925C913.457 159.598 909.026 158.84 903.352 159.706Z" fill="white"/>
<path d="M1081.91 129.486C1081.29 129.712 1079.38 131.233 1077.63 132.811C1075.88 134.388 1074.36 135.684 1074.19 135.684C1074.02 135.684 1073.8 134.332 1073.68 132.698C1073.52 129.881 1073.46 129.768 1071.83 129.768H1070.19L1068.33 140.755C1066.53 151.799 1066.53 152.532 1068.5 152.588C1069.4 152.588 1070.08 151.574 1071.21 148.531C1071.99 146.39 1072.61 145.658 1074.59 144.756C1077.63 143.235 1078.31 143.291 1086.76 145.038C1096.11 146.953 1100.96 146.784 1104.39 144.305C1107.04 142.333 1108.9 139.121 1109.91 134.67C1110.82 130.782 1110.03 129.712 1107.83 131.909C1105.97 133.825 1104.45 133.825 1099.83 131.966C1093.63 129.486 1084.9 128.247 1081.91 129.486Z" fill="white"/>
<path d="M1098.87 151.968C1094.93 154.391 1084.78 166.336 1081.46 172.422C1077.07 180.479 1076.11 187.41 1078.7 192.424C1080.45 195.749 1082.25 196.763 1086.98 196.988C1091.83 197.27 1093.8 196.481 1096.17 193.326C1097.63 191.466 1097.74 190.847 1097.74 186.452C1097.74 183.803 1097.41 178.789 1096.96 175.352C1096 167.181 1096.67 162.618 1099.77 156.758C1102.87 150.954 1102.59 149.658 1098.87 151.968Z" fill="white"/>
<defs>
<linearGradient id="paint0_linear_903_181" x1="992.5" y1="0" x2="992.5" y2="450" gradientUnits="userSpaceOnUse">
<stop offset="0.66994"/>
<stop offset="0.9999" stop-opacity="0"/>
</linearGradient>
<linearGradient id="paint1_linear_903_181" x1="1011" y1="319.5" x2="1138.5" y2="94.5" gradientUnits="userSpaceOnUse">
<stop stop-color="#121513"/>
<stop offset="0.955577" stop-color="#27A91B"/>
</linearGradient>
</defs>
</svg>
