<svg width="2501" height="450" viewBox="0 0 2501 450" fill="none" xmlns="http://www.w3.org/2000/svg">
<rect width="2501" height="450" fill="url(#paint0_linear_920_3)"/>
<path d="M960 422L777.269 105.5L1142.73 105.5L960 422Z" fill="url(#paint1_linear_920_3)"/>
<path d="M960 105.5L1051.45 263.6H868.548L960 105.5Z" fill="#BFBFBF"/>
<path d="M954.364 294.615C940.206 298.62 933.073 313.015 935.451 332.877C936.802 344.188 941.827 353.388 949.608 358.692C952.635 360.803 956.958 362.697 957.66 362.264C957.93 362.102 958.146 360.911 958.146 359.612C958.146 357.501 957.93 357.123 956.525 356.365C953.283 354.687 953.283 354.741 953.283 327.898V303.49L955.715 301.001C957.93 298.782 958.2 298.241 958.038 296.347C957.93 295.156 957.66 294.182 957.336 294.074C957.066 294.019 955.715 294.29 954.364 294.615Z" fill="url(#paint2_linear_920_3)"/>
<path d="M963.388 294.181C963.172 294.397 963.01 295.48 963.01 296.616C963.01 298.456 963.172 298.727 964.901 299.268C967.873 300.242 968.035 301.162 965.874 305.167C964.253 308.198 964.036 309.118 964.253 311.337C964.577 314.746 966.09 316.37 969.44 316.857C974.736 317.561 979.005 315.396 980.248 311.229C982.409 303.977 978.897 297.212 971.926 295.263C968.359 294.235 963.874 293.694 963.388 294.181Z" fill="url(#paint3_linear_920_3)"/>
<path d="M965.982 324.704C961.01 325.408 960.794 325.57 960.956 328.114C961.118 330.278 961.226 330.387 963.118 330.711C966.792 331.307 966.792 331.198 966.792 343.159C966.792 349.058 966.576 354.47 966.252 355.227C965.982 356.039 965.117 356.905 964.361 357.284C963.226 357.825 963.01 358.258 963.01 360.315V362.75L965.874 362.371C969.872 361.83 975.979 358.799 978.951 355.823C986.786 347.975 987.056 332.173 979.491 326.923C976.087 324.596 971.656 323.838 965.982 324.704Z" fill="url(#paint4_linear_920_3)"/>
<path d="M858.734 129.614C844.576 133.619 837.443 148.016 839.821 167.879C841.172 179.19 846.197 188.391 853.979 193.695C857.005 195.806 861.328 197.7 862.03 197.267C862.3 197.105 862.517 195.914 862.517 194.615C862.517 192.504 862.3 192.125 860.895 191.368C857.653 189.69 857.653 189.744 857.653 162.899V138.49L860.085 136C862.3 133.781 862.571 133.24 862.409 131.346C862.3 130.155 862.03 129.181 861.706 129.073C861.436 129.019 860.085 129.289 858.734 129.614Z" fill="url(#paint5_linear_920_3)"/>
<path d="M867.758 129.181C867.542 129.397 867.38 130.48 867.38 131.616C867.38 133.457 867.542 133.727 869.271 134.268C872.243 135.243 872.405 136.163 870.244 140.168C868.623 143.199 868.407 144.119 868.623 146.338C868.947 149.747 870.46 151.371 873.81 151.858C879.106 152.562 883.375 150.397 884.618 146.229C886.779 138.977 883.267 132.212 876.296 130.263C872.73 129.235 868.245 128.694 867.758 129.181Z" fill="url(#paint6_linear_920_3)"/>
<path d="M870.352 159.706C865.381 160.41 865.164 160.572 865.327 163.116C865.489 165.281 865.597 165.389 867.488 165.714C871.163 166.309 871.163 166.201 871.163 178.162C871.163 184.061 870.946 189.473 870.622 190.231C870.352 191.043 869.487 191.909 868.731 192.288C867.596 192.829 867.38 193.262 867.38 195.319V197.754L870.244 197.375C874.243 196.834 880.349 193.803 883.321 190.826C891.156 182.979 891.426 167.175 883.861 161.925C880.457 159.598 876.026 158.84 870.352 159.706Z" fill="url(#paint7_linear_920_3)"/>
<path d="M1048.91 129.486C1048.29 129.712 1046.38 131.233 1044.63 132.811C1042.88 134.388 1041.36 135.684 1041.19 135.684C1041.02 135.684 1040.8 134.332 1040.68 132.698C1040.52 129.881 1040.46 129.768 1038.83 129.768H1037.19L1035.33 140.755C1033.53 151.799 1033.53 152.532 1035.5 152.588C1036.4 152.588 1037.08 151.574 1038.21 148.531C1038.99 146.39 1039.61 145.657 1041.59 144.756C1044.63 143.235 1045.31 143.291 1053.76 145.038C1063.11 146.953 1067.96 146.784 1071.39 144.305C1074.04 142.333 1075.9 139.121 1076.91 134.67C1077.82 130.782 1077.03 129.712 1074.83 131.909C1072.97 133.825 1071.45 133.825 1066.83 131.965C1060.63 129.486 1051.9 128.247 1048.91 129.486Z" fill="url(#paint8_linear_920_3)"/>
<path d="M1065.87 151.968C1061.93 154.391 1051.78 166.336 1048.46 172.422C1044.07 180.479 1043.11 187.41 1045.7 192.424C1047.45 195.749 1049.25 196.763 1053.98 196.988C1058.83 197.27 1060.8 196.481 1063.17 193.326C1064.63 191.466 1064.74 190.847 1064.74 186.452C1064.74 183.803 1064.41 178.789 1063.96 175.352C1063 167.181 1063.67 162.618 1066.77 156.758C1069.87 150.954 1069.59 149.658 1065.87 151.968Z" fill="url(#paint9_linear_920_3)"/>
<path d="M1500.79 82.5501C1498.15 85.4851 1494.19 88.5669 1489.93 91.1351C1460.8 108.672 1446.71 120.339 1441.43 131.125C1433.51 147.342 1436.37 165.979 1448.77 178.453C1454.86 184.617 1461.46 188.506 1491.03 203.254L1514.66 215.068L1529.56 203.988C1547.46 190.854 1547.09 191.147 1545.63 190.193C1544.16 189.24 1543.57 189.533 1537.33 194.229C1531.61 198.485 1530.73 198.925 1531.39 197.164C1531.68 196.43 1529.48 194.963 1523.32 191.881L1514.81 187.625V148.956C1514.81 127.603 1514.95 110.213 1515.17 110.213C1515.39 110.213 1518.92 111.901 1523.1 113.955L1530.66 117.771L1546.73 105.81C1561.33 94.9507 1562.65 93.7767 1561.4 92.8962C1560.67 92.3091 1559.71 92.1624 1559.27 92.5293C1552.23 98.0325 1547.02 101.334 1547.39 100.234C1547.75 98.9864 1544.89 97.3721 1526.91 88.3468C1515.39 82.6234 1505.78 77.9273 1505.41 78.0007C1505.12 78.0007 1503.07 80.0553 1500.79 82.5501ZM1499.76 102.288L1507.47 106.177V144.847C1507.47 166.199 1507.32 183.59 1507.1 183.59C1506.88 183.59 1497.42 178.967 1486.12 173.243C1463.3 161.87 1460.21 159.669 1456.11 151.891C1450.38 141.105 1453.17 129.438 1464.47 117.184L1468.51 112.781L1468.58 133.84C1468.58 145.507 1468.8 154.973 1469.02 154.973C1469.31 154.973 1474.45 151.304 1480.39 146.828L1491.33 138.683V118.578C1491.33 107.498 1491.47 98.4728 1491.69 98.4728C1491.91 98.4728 1495.51 100.234 1499.76 102.288Z" fill="url(#paint10_linear_920_3)"/>
<path d="M1394.1 229.821C1390.95 232.602 1376.16 247.714 1375.92 248.359C1375.88 248.56 1376.37 248.641 1377.01 248.52C1378.54 248.318 1380.03 249.729 1380.64 251.986C1380.92 253.033 1381.04 257.748 1381 265.002L1380.88 276.407L1378.62 273.384C1373.83 267.098 1372.21 262.222 1372.21 253.88C1372.21 249.89 1372.42 247.754 1373.02 245.376C1374.59 239.211 1378.34 233.246 1382.37 230.506C1384.79 228.894 1384.75 228.854 1381.32 229.74C1372.21 232.078 1364.56 239.936 1362.14 249.406C1359.04 261.577 1362.34 273.707 1371.17 282.492C1378.06 289.383 1385.72 292.325 1395.35 291.842C1401.79 291.519 1406.35 289.867 1410.18 286.401C1411.79 284.95 1414.33 281.565 1414.05 281.283C1413.96 281.162 1412.43 281.807 1410.66 282.694C1407.44 284.306 1403.93 285.071 1399.54 285.112H1397.6V261.335C1397.6 248.238 1397.68 237.558 1397.76 237.558C1397.85 237.558 1398.69 237.84 1399.66 238.203C1402 239.049 1405.54 239.049 1407.11 238.243C1409.73 236.914 1412.47 232.602 1413.16 228.894C1413.44 227.282 1413.44 227.282 1412.59 228.007C1411.18 229.297 1408.85 229.861 1405.18 229.901C1401.31 229.901 1399.94 229.539 1398.37 228.007L1397.28 227L1394.1 229.821ZM1395.51 260.045C1395.63 287.892 1396.11 285.112 1391.4 283.338C1387.85 282.009 1381.89 278.099 1381.89 277.092C1381.89 276.931 1383.7 275.561 1385.92 274.07L1389.95 271.41V256.177V240.984L1392 238.243C1395.59 233.367 1395.39 232.158 1395.51 260.045Z" fill="url(#paint11_linear_920_3)"/>
<path d="M1427.63 232.279C1425.85 233.327 1423.19 234.858 1421.7 235.704L1418.96 237.196V260.972C1418.96 283.822 1418.92 284.789 1418.16 286.28L1417.39 287.852L1418.28 288.094C1418.76 288.215 1420.09 289.021 1421.26 289.907L1423.31 291.479L1424.68 290.471C1425.41 289.947 1426.74 289.101 1427.63 288.658C1428.51 288.215 1429.28 287.771 1429.36 287.731C1429.44 287.65 1429.12 287.006 1428.67 286.28C1427.87 284.991 1427.83 284.305 1427.83 272.175V259.4L1430.04 257.748C1431.25 256.821 1432.5 255.975 1432.82 255.854C1434.32 255.29 1438.06 258.715 1438.51 261.053C1438.67 261.778 1438.71 269.959 1438.63 279.268C1438.47 297.483 1438.47 297.403 1436.21 300.707C1435.57 301.674 1435.16 302.44 1435.28 302.44C1436.25 302.44 1441.29 299.055 1443.14 297.201C1446.89 293.494 1446.93 293.333 1447.09 274.875L1447.21 259.199L1449.19 257.305C1451.08 255.451 1451.12 255.371 1450.4 254.685C1449.71 254.041 1449.55 254.081 1447.53 255.451L1445.36 256.902L1444.39 255.572C1442.78 253.476 1440.44 251.421 1438.75 250.656L1437.14 249.97L1433.79 252.55C1431.94 253.96 1429.84 255.532 1429.16 256.015L1427.83 256.942V245.658V234.375L1430.25 232.924C1432.26 231.715 1432.62 231.312 1432.22 230.869C1431.54 230.063 1431.21 230.183 1427.63 232.279Z" fill="url(#paint12_linear_920_3)"/>
<path d="M1508.83 251.461C1505.04 252.791 1497.91 256.902 1495.65 259.038L1494.32 260.287V272.216V284.144L1495.85 285.595C1498.07 287.731 1505.85 292.365 1507.22 292.365C1507.42 292.365 1509.11 291.237 1510.93 289.907C1512.78 288.537 1516.04 286.401 1518.18 285.152L1522.09 282.895L1522.13 271.974V261.012L1523.7 259.602C1524.59 258.796 1525.88 257.869 1526.52 257.506C1528.01 256.741 1528.09 256.217 1526.84 255.653C1526.12 255.33 1525.47 255.451 1523.94 256.096C1522.81 256.579 1521.6 257.224 1521.24 257.587C1520.84 257.95 1520.19 258.111 1519.63 257.99C1518.26 257.627 1515.08 255.451 1512.5 253.033C1510.28 251.018 1510.2 250.978 1508.83 251.461ZM1509.43 257.426C1509.76 257.95 1510.84 258.957 1511.85 259.723L1513.67 261.093V272.457C1513.67 283.459 1513.63 283.862 1512.86 284.104C1512.42 284.225 1511.09 285.152 1509.92 286.119L1507.74 287.852L1505.97 286.844C1502.54 284.91 1502.78 286.119 1502.78 272.054V259.481L1505.04 257.99C1507.7 256.257 1508.59 256.136 1509.43 257.426Z" fill="url(#paint13_linear_920_3)"/>
<path d="M1534.14 253.92C1531.44 256.177 1531.07 256.66 1531.4 257.345C1531.76 257.99 1531.96 258.03 1532.81 257.627C1535.1 256.579 1535.43 258.433 1535.39 273.626C1535.39 283.701 1535.31 286.32 1534.82 287.126C1533.98 288.617 1534.06 288.94 1535.59 289.625C1536.31 289.988 1537.56 290.834 1538.33 291.519L1539.74 292.728L1541.11 291.721C1541.88 291.156 1543.2 290.31 1544.09 289.867C1544.98 289.423 1545.74 288.98 1545.82 288.94C1545.9 288.859 1545.58 288.214 1545.14 287.489C1544.33 286.2 1544.29 285.514 1544.29 272.78V259.441L1546.07 258.191C1547.03 257.466 1548.12 256.902 1548.44 256.902C1549.49 256.902 1552.39 259.36 1553 260.73C1553.84 262.745 1553.8 285.635 1552.96 287.126C1552.11 288.617 1552.19 288.94 1553.72 289.625C1554.45 289.988 1555.74 290.834 1556.5 291.519L1557.91 292.768L1559.08 291.841C1559.69 291.277 1561.02 290.471 1562.02 289.947C1563.03 289.464 1563.88 289.02 1563.92 288.98C1563.96 288.94 1563.56 288.013 1563.03 286.925C1562.02 284.991 1562.02 284.95 1562.02 272.417V259.803L1563.84 258.312C1566.05 256.539 1566.9 256.62 1569.24 258.836C1571.58 261.053 1571.74 262.141 1571.62 274.755C1571.5 284.265 1571.41 285.917 1570.81 287.086C1569.88 288.859 1569.88 289.02 1571.01 289.303C1571.5 289.423 1572.82 290.229 1573.99 291.116C1575.97 292.647 1576.09 292.688 1576.73 291.962C1577.1 291.559 1578.39 290.713 1579.6 290.068C1580.8 289.464 1581.77 288.819 1581.77 288.658C1581.77 288.497 1581.41 287.771 1580.97 287.046C1580.2 285.797 1580.16 284.991 1580.16 273.062V260.368L1582.17 258.474C1584.15 256.62 1584.15 256.579 1583.38 255.894C1582.58 255.169 1582.5 255.209 1580.44 256.62C1578.51 257.99 1578.31 258.071 1577.82 257.385C1576.53 255.612 1573.51 252.872 1571.94 252.026L1570.17 251.099L1566.14 254.202C1563.92 255.894 1561.82 257.426 1561.46 257.547C1561.1 257.668 1560.61 257.385 1560.21 256.741C1559.2 255.209 1555.82 252.63 1553.76 251.864L1551.99 251.179L1547.96 254.282C1545.7 256.015 1543.85 257.345 1543.77 257.265C1543.73 257.184 1543.12 256.297 1542.48 255.33C1541.27 253.557 1538.53 251.22 1537.68 251.3C1537.44 251.3 1535.83 252.509 1534.14 253.92Z" fill="url(#paint14_linear_920_3)"/>
<path d="M1458.33 255.33C1454.59 258.554 1454.1 259.118 1454.47 259.803C1454.87 260.529 1454.99 260.448 1456.88 258.877C1459.14 256.982 1459.5 257.063 1460.99 259.884C1461.84 261.456 1461.88 262.1 1462 274.19L1462.12 286.844L1460.03 288.819C1458.29 290.431 1458.05 290.874 1458.46 291.358C1458.9 291.882 1459.1 291.882 1460.11 291.277C1460.75 290.874 1461.96 289.907 1462.77 289.061L1464.22 287.57L1465.67 288.698C1466.47 289.343 1468.33 290.512 1469.82 291.318L1472.52 292.809L1474.7 291.035C1475.86 290.068 1477.92 288.658 1479.25 287.932C1480.54 287.207 1481.71 286.522 1481.79 286.482C1482.03 286.28 1480.1 284.749 1479.61 284.708C1479.41 284.708 1478.16 285.353 1476.87 286.119C1474.29 287.691 1473.85 287.65 1471.67 285.635L1470.59 284.588L1470.55 275.359C1470.55 267.581 1470.63 265.929 1471.19 264.76C1471.79 263.43 1476.27 258.917 1476.95 258.917C1477.64 258.917 1481.06 261.496 1481.87 262.584C1482.31 263.229 1482.88 263.753 1483.12 263.753C1483.72 263.753 1489.04 259.36 1489.53 258.393C1489.89 257.788 1489.77 257.385 1488.8 256.418C1486.99 254.444 1483.04 251.663 1482.07 251.663C1480.74 251.663 1477.32 254.162 1473.97 257.587C1472.28 259.28 1470.87 260.569 1470.83 260.489C1470.75 260.408 1470.38 259.481 1469.98 258.433C1468.65 254.847 1466.72 252.872 1463.49 251.905C1462.85 251.703 1461.68 252.509 1458.33 255.33Z" fill="url(#paint15_linear_920_3)"/>
<path d="M1600.47 255.209C1597.41 257.144 1593.82 259.441 1592.57 260.287L1590.27 261.818L1590.15 273.384L1590.03 284.99L1588.74 286.482C1587.53 287.811 1587.01 289.141 1587.66 289.141C1587.78 289.141 1588.78 288.416 1589.83 287.529C1590.88 286.643 1592.01 285.917 1592.33 285.917C1593.3 285.917 1595.88 287.811 1598.58 290.471L1601.07 292.889L1604.26 290.995C1607.2 289.182 1614.49 283.499 1614.7 282.814C1614.74 282.613 1614.33 282.17 1613.81 281.767C1612.84 281.081 1612.8 281.081 1609.46 283.62C1607.6 285.031 1605.51 286.401 1604.78 286.643C1603.49 287.086 1603.33 287.046 1601.44 285.313C1600.31 284.305 1599.26 283.499 1599.06 283.499C1598.86 283.499 1598.7 281.001 1598.7 277.938V272.377L1600.71 271.853C1604.82 270.805 1612.44 266.493 1616.59 262.866L1618.16 261.496L1615.66 259.965C1614.29 259.118 1611.59 256.942 1609.62 255.048L1606.07 251.663L1600.47 255.209ZM1609.58 265.002C1609.58 266.009 1603.09 269.475 1600.19 269.999L1598.7 270.281V265.083C1598.7 260.206 1598.74 259.803 1599.62 258.997C1600.11 258.554 1600.95 257.99 1601.48 257.788C1602.36 257.466 1602.81 257.788 1606.03 261.053C1607.97 263.068 1609.58 264.841 1609.58 265.002Z" fill="url(#paint16_linear_920_3)"/>
<path d="M1417.71 321.058C1414.09 324.323 1400.38 338.387 1400.1 339.153C1400.02 339.354 1400.26 339.395 1400.59 339.274C1401.63 338.871 1403.65 339.918 1404.37 341.289C1404.98 342.377 1405.06 344.15 1405.14 354.829L1405.26 367.121L1404.01 365.71C1400.3 361.519 1397.6 356.159 1396.8 351.484C1396.52 349.832 1396.39 346.447 1396.48 343.022C1396.64 338.105 1396.8 336.815 1397.76 334.075C1399.74 328.312 1403.89 322.549 1407.32 320.736C1409.25 319.769 1408.48 319.688 1405.22 320.615C1393.69 323.799 1386.32 333.39 1385.31 346.608C1384.55 356.723 1387.89 365.67 1395.19 372.964C1402.48 380.258 1409.21 382.918 1419.37 382.515C1426.3 382.233 1430.45 380.742 1434.4 377.074C1436.29 375.261 1438.55 372.279 1438.23 371.916C1438.1 371.836 1436.9 372.4 1435.44 373.165C1432.02 374.979 1428.8 375.785 1424.93 375.785H1421.78V351.968C1421.78 329.441 1421.82 328.151 1422.51 328.433C1428.92 331.214 1433.47 329.4 1436.25 322.993C1437.18 320.857 1437.74 318.399 1437.26 318.64C1433.19 320.615 1432.83 320.696 1429.24 320.696C1425.41 320.696 1423.44 320.091 1422.15 318.479C1421.54 317.714 1421.42 317.794 1417.71 321.058ZM1419.69 350.92C1419.73 364.38 1419.73 375.382 1419.65 375.382C1418.96 375.382 1413.84 373.448 1412.11 372.521C1409.89 371.352 1406.07 368.329 1406.07 367.765C1406.07 367.604 1407.88 366.234 1410.1 364.743L1414.13 362.083V346.931V331.818L1415.05 330.529C1415.58 329.803 1416.5 328.554 1417.11 327.708C1417.79 326.781 1418.52 326.217 1418.88 326.297C1419.53 326.418 1419.57 328.473 1419.69 350.92Z" fill="url(#paint17_linear_920_3)"/>
<path d="M1532.4 322.832C1531.96 323.154 1529.3 324.726 1526.48 326.297L1521.32 329.118V336.13V343.142H1519.99C1518.86 343.142 1518.46 343.425 1517.37 344.956C1516.65 345.963 1516.08 346.89 1516.08 346.971C1516.08 347.092 1517.25 347.172 1518.7 347.172H1521.36L1521.24 361.6L1521.12 376.027L1519.83 377.639C1518.62 379.17 1518.58 379.331 1519.23 379.936C1519.83 380.581 1519.99 380.5 1521.44 379.089L1523.01 377.598L1523.66 378.606C1524.87 380.419 1527 382.595 1527.81 382.837C1528.42 383.039 1529.74 382.152 1533.33 379.17C1535.91 376.994 1538.13 375.18 1538.21 375.1C1538.33 375.019 1537.93 374.495 1537.36 373.891L1536.31 372.843L1534.62 374.173C1532.69 375.704 1532.12 375.583 1530.79 373.327C1530.03 372.037 1529.99 371.11 1529.87 359.544L1529.74 347.172H1532.69H1535.63L1536.96 345.157L1538.25 343.142H1534.02H1529.79V334.881V326.579L1532.2 325.088C1533.61 324.202 1534.54 323.355 1534.5 322.993C1534.38 322.146 1533.37 322.066 1532.4 322.832Z" fill="url(#paint18_linear_920_3)"/>
<path d="M1555.17 323.114C1554.41 323.638 1551.71 325.209 1549.25 326.579L1544.7 329.118V351.807C1544.7 366.395 1544.53 374.898 1544.29 375.624C1544.05 376.228 1543.41 377.236 1542.84 377.921C1541.88 379.049 1541.88 379.13 1542.52 379.895C1543.2 380.621 1543.29 380.621 1544.82 379.13C1546.31 377.679 1546.43 377.639 1546.87 378.364C1547.68 379.775 1550.82 383.039 1551.35 383.039C1551.63 383.039 1554.09 381.185 1556.79 378.969L1561.7 374.898L1560.69 373.851L1559.69 372.843L1557.99 374.173C1555.98 375.785 1555.42 375.583 1554.09 372.964L1553.16 371.191V348.905V326.579L1555.58 325.088C1556.99 324.202 1557.91 323.355 1557.87 322.993C1557.71 322.066 1556.71 322.106 1555.17 323.114Z" fill="url(#paint19_linear_920_3)"/>
<path d="M1490.9 344.593C1489.36 346.044 1487.19 347.455 1484.97 348.502L1481.47 350.195L1481.43 357.126V364.098L1483.4 365.065C1485.7 366.234 1489.49 367.725 1490.13 367.725C1490.41 367.725 1492.19 366.718 1494.12 365.509C1496.09 364.3 1497.99 363.292 1498.39 363.292C1499.36 363.292 1502.22 366.637 1502.54 368.168C1502.91 370.022 1502.82 375.503 1502.42 376.107C1502.18 376.551 1501.66 376.389 1499.92 375.422C1497.18 373.891 1493.07 372.803 1491.26 373.166C1489.61 373.448 1486.1 375.261 1482.76 377.518C1480.94 378.727 1480.22 379.452 1480.22 380.097C1480.22 381.427 1480.74 381.507 1482.84 380.581C1485.25 379.493 1488.88 379.17 1490.86 379.815C1491.66 380.057 1493.11 380.903 1494.08 381.628L1495.81 382.918L1499.4 380.702C1503.27 378.284 1506.73 376.994 1509.27 376.994H1510.84V368.571V360.189L1508.55 358.98C1507.26 358.295 1505.53 357.529 1504.68 357.247C1503.11 356.764 1503.07 356.764 1501.37 358.456C1500.45 359.383 1498.84 360.552 1497.79 361.035C1496.09 361.841 1495.61 361.922 1493.44 361.559C1488.84 360.874 1489.08 361.237 1489.08 355.555L1489.12 350.598L1490.98 349.671L1492.83 348.744L1494.28 349.752C1497.87 352.25 1500.45 352.492 1504.32 350.799C1506.61 349.752 1507.78 348.704 1509.11 346.447C1510.04 344.835 1510.08 344.634 1509.51 344.069C1508.95 343.505 1508.79 343.505 1507.62 344.472C1505.81 346.044 1503.47 346.568 1500.93 346.004C1498.71 345.48 1496.22 344.311 1494.89 343.102C1494.44 342.699 1493.92 342.337 1493.68 342.337C1493.48 342.377 1492.23 343.384 1490.9 344.593Z" fill="url(#paint20_linear_920_3)"/>
<path d="M1576.49 345.802C1573.51 347.737 1569.96 349.993 1568.59 350.88L1566.09 352.452L1565.97 364.018L1565.85 375.624L1564.56 377.195C1563.84 378.082 1563.23 379.13 1563.23 379.533C1563.23 380.097 1563.72 379.896 1565.49 378.445C1566.74 377.397 1567.99 376.591 1568.27 376.591C1569 376.591 1572.22 379.049 1574.76 381.507L1576.81 383.522L1578.59 382.636C1580.93 381.467 1583.71 379.493 1587.53 376.269L1590.68 373.609L1589.71 372.642L1588.7 371.674L1585.76 374.012C1584.11 375.342 1582.01 376.752 1581.09 377.155L1579.39 377.921L1577.86 376.551C1577.02 375.785 1575.93 374.858 1575.4 374.536C1574.52 373.891 1574.48 373.689 1574.6 368.491L1574.72 363.131L1576.94 362.486C1581.53 361.116 1588.38 357.207 1592.25 353.741L1594.02 352.129L1592.65 351.404C1590.56 350.316 1587.94 348.261 1584.75 345.157L1581.93 342.377L1576.49 345.802ZM1581.93 351.887C1583.83 353.822 1585.4 355.555 1585.4 355.716C1585.4 356.683 1578.63 360.31 1575.97 360.753L1574.48 360.995L1574.6 355.595L1574.72 350.235L1576.09 349.308C1576.85 348.784 1577.7 348.381 1577.98 348.381C1578.27 348.381 1580.04 349.953 1581.93 351.887Z" fill="url(#paint21_linear_920_3)"/>
<path d="M1460.47 343.908C1457.09 344.996 1453.1 347.011 1450.84 348.784C1449.71 349.671 1448.42 350.396 1447.94 350.396C1447.13 350.396 1447.13 350.356 1448.14 349.147C1449.35 347.696 1449.39 347.576 1448.62 345.762C1447.49 343.143 1444.59 342.86 1443.14 345.278C1440.24 349.993 1445.96 354.467 1450.88 351.323C1452.97 350.034 1456.2 348.583 1457.85 348.22C1458.98 347.979 1459.22 348.14 1460.55 349.873L1462 351.807L1462.04 357.731C1462.08 362.124 1462 363.695 1461.64 363.695C1460.91 363.695 1457.04 360.713 1454.14 357.932L1451.64 355.555L1449.91 356.562C1444.79 359.585 1442.09 365.791 1442.42 373.73C1442.54 376.954 1442.66 377.518 1443.75 379.09C1444.43 380.016 1445.84 381.427 1446.93 382.112C1450.52 384.53 1453.01 383.805 1458.9 378.566C1460.39 377.236 1461.68 376.188 1461.8 376.188C1461.88 376.188 1462.08 376.954 1462.16 377.881C1462.28 378.848 1462.65 380.299 1463.01 381.105C1463.86 383.12 1464.86 383.12 1468.97 380.984C1472.96 378.888 1475.62 376.631 1475.26 375.624C1475.02 374.979 1474.82 375.019 1473.53 376.188C1470.75 378.606 1470.75 378.646 1470.63 365.227C1470.55 353.338 1470.55 353.258 1471.39 353.016C1472.52 352.653 1475.38 350.034 1475.38 349.349C1475.38 348.462 1474.62 348.301 1473.89 349.026C1472.6 350.316 1470.87 350.799 1469.7 350.195C1468.49 349.55 1466.19 347.092 1464.66 344.755C1464.06 343.868 1463.37 343.143 1463.13 343.183C1462.89 343.183 1461.68 343.505 1460.47 343.908ZM1455.8 361.922C1456.92 362.97 1458.82 364.34 1459.99 364.985L1462.08 366.194V369.136C1462.08 371.755 1461.96 372.239 1460.99 373.407C1459.22 375.503 1455.27 378.203 1453.98 378.203C1451.28 378.203 1450.4 374.939 1451.08 367.725C1451.52 363.574 1452.53 360.068 1453.3 360.068C1453.54 360.068 1454.63 360.915 1455.8 361.922Z" fill="url(#paint22_linear_920_3)"/>
<defs>
<linearGradient id="paint0_linear_920_3" x1="1250.5" y1="0" x2="1250.5" y2="450" gradientUnits="userSpaceOnUse">
<stop offset="0.66994" stop-color="#BEBEBE"/>
<stop offset="0.9999" stop-color="#D9D9D9" stop-opacity="0"/>
</linearGradient>
<linearGradient id="paint1_linear_920_3" x1="978" y1="319.5" x2="1105.5" y2="94.5" gradientUnits="userSpaceOnUse">
<stop offset="0.15" stop-color="white"/>
<stop offset="0.955577" stop-color="#616261"/>
</linearGradient>
<linearGradient id="paint2_linear_920_3" x1="928.056" y1="241.868" x2="996.917" y2="270.894" gradientUnits="userSpaceOnUse">
<stop/>
<stop offset="1" stop-opacity="0.22"/>
</linearGradient>
<linearGradient id="paint3_linear_920_3" x1="957.648" y1="276.421" x2="990.025" y2="307.71" gradientUnits="userSpaceOnUse">
<stop/>
<stop offset="1" stop-opacity="0.22"/>
</linearGradient>
<linearGradient id="paint4_linear_920_3" x1="953.699" y1="294.997" x2="1006.17" y2="335.903" gradientUnits="userSpaceOnUse">
<stop/>
<stop offset="1" stop-opacity="0.22"/>
</linearGradient>
<linearGradient id="paint5_linear_920_3" x1="832.427" y1="76.8643" x2="901.288" y2="105.889" gradientUnits="userSpaceOnUse">
<stop/>
<stop offset="1" stop-opacity="0.22"/>
</linearGradient>
<linearGradient id="paint6_linear_920_3" x1="862.019" y1="111.42" x2="894.397" y2="142.709" gradientUnits="userSpaceOnUse">
<stop/>
<stop offset="1" stop-opacity="0.22"/>
</linearGradient>
<linearGradient id="paint7_linear_920_3" x1="858.069" y1="129.997" x2="910.542" y2="170.903" gradientUnits="userSpaceOnUse">
<stop/>
<stop offset="1" stop-opacity="0.22"/>
</linearGradient>
<linearGradient id="paint8_linear_920_3" x1="1021.02" y1="110.962" x2="1045.46" y2="166.726" gradientUnits="userSpaceOnUse">
<stop/>
<stop offset="1" stop-opacity="0.22"/>
</linearGradient>
<linearGradient id="paint9_linear_920_3" x1="1036.89" y1="115.591" x2="1096.81" y2="155.327" gradientUnits="userSpaceOnUse">
<stop/>
<stop offset="1" stop-opacity="0.22"/>
</linearGradient>
<linearGradient id="paint10_linear_920_3" x1="1499.38" y1="215.068" x2="1610.22" y2="66.3751" gradientUnits="userSpaceOnUse">
<stop/>
<stop offset="1" stop-opacity="0"/>
</linearGradient>
<linearGradient id="paint11_linear_920_3" x1="1387.53" y1="291.893" x2="1441.35" y2="227.031" gradientUnits="userSpaceOnUse">
<stop/>
<stop offset="1" stop-opacity="0"/>
</linearGradient>
<linearGradient id="paint12_linear_920_3" x1="1434.11" y1="302.44" x2="1490.76" y2="263.677" gradientUnits="userSpaceOnUse">
<stop/>
<stop offset="1" stop-opacity="0"/>
</linearGradient>
<linearGradient id="paint13_linear_920_3" x1="1511.02" y1="292.365" x2="1545.2" y2="251.491" gradientUnits="userSpaceOnUse">
<stop/>
<stop offset="1" stop-opacity="0"/>
</linearGradient>
<linearGradient id="paint14_linear_920_3" x1="1557.58" y1="292.768" x2="1586.92" y2="238.229" gradientUnits="userSpaceOnUse">
<stop/>
<stop offset="1" stop-opacity="0"/>
</linearGradient>
<linearGradient id="paint15_linear_920_3" x1="1472.04" y1="292.809" x2="1505.81" y2="250.045" gradientUnits="userSpaceOnUse">
<stop/>
<stop offset="1" stop-opacity="0"/>
</linearGradient>
<linearGradient id="paint16_linear_920_3" x1="1602.77" y1="292.889" x2="1637.4" y2="254.78" gradientUnits="userSpaceOnUse">
<stop/>
<stop offset="1" stop-opacity="0"/>
</linearGradient>
<linearGradient id="paint17_linear_920_3" x1="1411.73" y1="382.554" x2="1465.14" y2="317.787" gradientUnits="userSpaceOnUse">
<stop/>
<stop offset="1" stop-opacity="0"/>
</linearGradient>
<linearGradient id="paint18_linear_920_3" x1="1527.17" y1="382.865" x2="1569.87" y2="359.829" gradientUnits="userSpaceOnUse">
<stop/>
<stop offset="1" stop-opacity="0"/>
</linearGradient>
<linearGradient id="paint19_linear_920_3" x1="1551.89" y1="383.039" x2="1591.68" y2="364.075" gradientUnits="userSpaceOnUse">
<stop/>
<stop offset="1" stop-opacity="0"/>
</linearGradient>
<linearGradient id="paint20_linear_920_3" x1="1495.53" y1="382.918" x2="1529.58" y2="345.044" gradientUnits="userSpaceOnUse">
<stop/>
<stop offset="1" stop-opacity="0"/>
</linearGradient>
<linearGradient id="paint21_linear_920_3" x1="1578.63" y1="383.522" x2="1613.18" y2="345.416" gradientUnits="userSpaceOnUse">
<stop/>
<stop offset="1" stop-opacity="0"/>
</linearGradient>
<linearGradient id="paint22_linear_920_3" x1="1458.87" y1="383.438" x2="1492.23" y2="343.097" gradientUnits="userSpaceOnUse">
<stop/>
<stop offset="1" stop-opacity="0"/>
</linearGradient>
</defs>
</svg>
