<svg width="1404" height="232" viewBox="0 0 1404 232" fill="none" xmlns="http://www.w3.org/2000/svg">
<rect y="31" width="1378" height="171" fill="#0D1117"/>
<path d="M84 158H62.4545V88.1818H84.9545C91.7273 88.1818 97.5227 89.5795 102.341 92.375C107.159 95.1477 110.852 99.1364 113.42 104.341C115.989 109.523 117.273 115.727 117.273 122.955C117.273 130.227 115.977 136.489 113.386 141.739C110.795 146.966 107.023 150.989 102.068 153.807C97.1136 156.602 91.0909 158 84 158ZM70.9091 150.5H83.4545C89.2273 150.5 94.0114 149.386 97.8068 147.159C101.602 144.932 104.432 141.761 106.295 137.648C108.159 133.534 109.091 128.636 109.091 122.955C109.091 117.318 108.17 112.466 106.33 108.398C104.489 104.307 101.739 101.17 98.0795 98.9886C94.4205 96.7841 89.8636 95.6818 84.4091 95.6818H70.9091V150.5ZM145.773 159.227C142.455 159.227 139.443 158.602 136.739 157.352C134.034 156.08 131.886 154.25 130.295 151.864C128.705 149.455 127.909 146.545 127.909 143.136C127.909 140.136 128.5 137.705 129.682 135.841C130.864 133.955 132.443 132.477 134.42 131.409C136.398 130.341 138.58 129.545 140.966 129.023C143.375 128.477 145.795 128.045 148.227 127.727C151.409 127.318 153.989 127.011 155.966 126.807C157.966 126.58 159.42 126.205 160.33 125.682C161.261 125.159 161.727 124.25 161.727 122.955V122.682C161.727 119.318 160.807 116.705 158.966 114.841C157.148 112.977 154.386 112.045 150.682 112.045C146.841 112.045 143.83 112.886 141.648 114.568C139.466 116.25 137.932 118.045 137.045 119.955L129.409 117.227C130.773 114.045 132.591 111.568 134.864 109.795C137.159 108 139.659 106.75 142.364 106.045C145.091 105.318 147.773 104.955 150.409 104.955C152.091 104.955 154.023 105.159 156.205 105.568C158.409 105.955 160.534 106.761 162.58 107.989C164.648 109.216 166.364 111.068 167.727 113.545C169.091 116.023 169.773 119.341 169.773 123.5V158H161.727V150.909H161.318C160.773 152.045 159.864 153.261 158.591 154.557C157.318 155.852 155.625 156.955 153.511 157.864C151.398 158.773 148.818 159.227 145.773 159.227ZM147 152C150.182 152 152.864 151.375 155.045 150.125C157.25 148.875 158.909 147.261 160.023 145.284C161.159 143.307 161.727 141.227 161.727 139.045V131.682C161.386 132.091 160.636 132.466 159.477 132.807C158.341 133.125 157.023 133.409 155.523 133.659C154.045 133.886 152.602 134.091 151.193 134.273C149.807 134.432 148.682 134.568 147.818 134.682C145.727 134.955 143.773 135.398 141.955 136.011C140.159 136.602 138.705 137.5 137.591 138.705C136.5 139.886 135.955 141.5 135.955 143.545C135.955 146.341 136.989 148.455 139.057 149.886C141.148 151.295 143.795 152 147 152ZM184.457 158V105.636H192.23V113.545H192.776C193.73 110.955 195.457 108.852 197.957 107.239C200.457 105.625 203.276 104.818 206.412 104.818C207.003 104.818 207.741 104.83 208.628 104.852C209.514 104.875 210.185 104.909 210.639 104.955V113.136C210.366 113.068 209.741 112.966 208.764 112.83C207.81 112.67 206.798 112.591 205.73 112.591C203.185 112.591 200.912 113.125 198.912 114.193C196.935 115.239 195.366 116.693 194.207 118.557C193.071 120.398 192.503 122.5 192.503 124.864V158H184.457ZM227.676 138.909L227.54 128.955H229.176L252.085 105.636H262.04L237.631 130.318H236.949L227.676 138.909ZM220.176 158V88.1818H228.222V158H220.176ZM253.449 158L232.994 132.091L238.722 126.5L263.676 158H253.449ZM300.486 88.1818H310.577L334.304 146.136H335.122L358.849 88.1818H368.94V158H361.031V104.955H360.349L338.531 158H330.895L309.077 104.955H308.395V158H300.486V88.1818ZM406.074 159.091C401.347 159.091 397.199 157.966 393.631 155.716C390.085 153.466 387.312 150.318 385.312 146.273C383.335 142.227 382.347 137.5 382.347 132.091C382.347 126.636 383.335 121.875 385.312 117.807C387.312 113.739 390.085 110.58 393.631 108.33C397.199 106.08 401.347 104.955 406.074 104.955C410.801 104.955 414.938 106.08 418.483 108.33C422.051 110.58 424.824 113.739 426.801 117.807C428.801 121.875 429.801 126.636 429.801 132.091C429.801 137.5 428.801 142.227 426.801 146.273C424.824 150.318 422.051 153.466 418.483 155.716C414.938 157.966 410.801 159.091 406.074 159.091ZM406.074 151.864C409.665 151.864 412.619 150.943 414.938 149.102C417.256 147.261 418.972 144.841 420.085 141.841C421.199 138.841 421.756 135.591 421.756 132.091C421.756 128.591 421.199 125.33 420.085 122.307C418.972 119.284 417.256 116.841 414.938 114.977C412.619 113.114 409.665 112.182 406.074 112.182C402.483 112.182 399.528 113.114 397.21 114.977C394.892 116.841 393.176 119.284 392.062 122.307C390.949 125.33 390.392 128.591 390.392 132.091C390.392 135.591 390.949 138.841 392.062 141.841C393.176 144.841 394.892 147.261 397.21 149.102C399.528 150.943 402.483 151.864 406.074 151.864ZM461.855 159.091C457.491 159.091 453.639 157.989 450.298 155.784C446.957 153.557 444.344 150.42 442.457 146.375C440.571 142.307 439.628 137.5 439.628 131.955C439.628 126.455 440.571 121.682 442.457 117.636C444.344 113.591 446.969 110.466 450.332 108.261C453.696 106.057 457.582 104.955 461.991 104.955C465.401 104.955 468.094 105.523 470.071 106.659C472.071 107.773 473.594 109.045 474.639 110.477C475.707 111.886 476.537 113.045 477.128 113.955H477.81V88.1818H485.855V158H478.082V149.955H477.128C476.537 150.909 475.696 152.114 474.605 153.568C473.514 155 471.957 156.284 469.935 157.42C467.912 158.534 465.219 159.091 461.855 159.091ZM462.946 151.864C466.173 151.864 468.901 151.023 471.128 149.341C473.355 147.636 475.048 145.284 476.207 142.284C477.366 139.261 477.946 135.773 477.946 131.818C477.946 127.909 477.378 124.489 476.241 121.557C475.105 118.602 473.423 116.307 471.196 114.67C468.969 113.011 466.219 112.182 462.946 112.182C459.537 112.182 456.696 113.057 454.423 114.807C452.173 116.534 450.48 118.886 449.344 121.864C448.23 124.818 447.673 128.136 447.673 131.818C447.673 135.545 448.241 138.932 449.378 141.977C450.537 145 452.241 147.409 454.491 149.205C456.764 150.977 459.582 151.864 462.946 151.864ZM523.662 159.091C518.616 159.091 514.264 157.977 510.605 155.75C506.969 153.5 504.162 150.364 502.185 146.341C500.23 142.295 499.253 137.591 499.253 132.227C499.253 126.864 500.23 122.136 502.185 118.045C504.162 113.932 506.912 110.727 510.435 108.432C513.98 106.114 518.116 104.955 522.844 104.955C525.571 104.955 528.264 105.409 530.923 106.318C533.582 107.227 536.003 108.705 538.185 110.75C540.366 112.773 542.105 115.455 543.401 118.795C544.696 122.136 545.344 126.25 545.344 131.136V134.545H504.98V127.591H537.162C537.162 124.636 536.571 122 535.389 119.682C534.23 117.364 532.571 115.534 530.412 114.193C528.276 112.852 525.753 112.182 522.844 112.182C519.639 112.182 516.866 112.977 514.526 114.568C512.207 116.136 510.423 118.182 509.173 120.705C507.923 123.227 507.298 125.932 507.298 128.818V133.455C507.298 137.409 507.98 140.761 509.344 143.511C510.73 146.239 512.651 148.318 515.105 149.75C517.56 151.159 520.412 151.864 523.662 151.864C525.776 151.864 527.685 151.568 529.389 150.977C531.116 150.364 532.605 149.455 533.855 148.25C535.105 147.023 536.071 145.5 536.753 143.682L544.526 145.864C543.707 148.5 542.332 150.818 540.401 152.818C538.469 154.795 536.082 156.341 533.241 157.455C530.401 158.545 527.207 159.091 523.662 159.091ZM584.582 158V105.636H592.628V158H584.582ZM588.673 96.9091C587.105 96.9091 585.753 96.375 584.616 95.3068C583.503 94.2386 582.946 92.9545 582.946 91.4545C582.946 89.9545 583.503 88.6705 584.616 87.6023C585.753 86.5341 587.105 86 588.673 86C590.241 86 591.582 86.5341 592.696 87.6023C593.832 88.6705 594.401 89.9545 594.401 91.4545C594.401 92.9545 593.832 94.2386 592.696 95.3068C591.582 96.375 590.241 96.9091 588.673 96.9091ZM644.455 117.364L637.227 119.409C636.773 118.205 636.102 117.034 635.216 115.898C634.352 114.739 633.17 113.784 631.67 113.034C630.17 112.284 628.25 111.909 625.909 111.909C622.705 111.909 620.034 112.648 617.898 114.125C615.784 115.58 614.727 117.432 614.727 119.682C614.727 121.682 615.455 123.261 616.909 124.42C618.364 125.58 620.636 126.545 623.727 127.318L631.5 129.227C636.182 130.364 639.67 132.102 641.966 134.443C644.261 136.761 645.409 139.75 645.409 143.409C645.409 146.409 644.545 149.091 642.818 151.455C641.114 153.818 638.727 155.682 635.659 157.045C632.591 158.409 629.023 159.091 624.955 159.091C619.614 159.091 615.193 157.932 611.693 155.614C608.193 153.295 605.977 149.909 605.045 145.455L612.682 143.545C613.409 146.364 614.784 148.477 616.807 149.886C618.852 151.295 621.523 152 624.818 152C628.568 152 631.545 151.205 633.75 149.614C635.977 148 637.091 146.068 637.091 143.818C637.091 142 636.455 140.477 635.182 139.25C633.909 138 631.955 137.068 629.318 136.455L620.591 134.409C615.795 133.273 612.273 131.511 610.023 129.125C607.795 126.716 606.682 123.705 606.682 120.091C606.682 117.136 607.511 114.523 609.17 112.25C610.852 109.977 613.136 108.193 616.023 106.898C618.932 105.602 622.227 104.955 625.909 104.955C631.091 104.955 635.159 106.091 638.114 108.364C641.091 110.636 643.205 113.636 644.455 117.364Z" fill="white"/>
<path d="M688.474 158H679.611L705.247 88.1818H713.974L739.611 158H730.747L709.884 99.2273H709.338L688.474 158ZM691.747 130.727H727.474V138.227H691.747V130.727ZM770.668 159.091C765.759 159.091 761.531 157.932 757.986 155.614C754.44 153.295 751.713 150.102 749.804 146.034C747.895 141.966 746.94 137.318 746.94 132.091C746.94 126.773 747.918 122.08 749.872 118.011C751.849 113.92 754.599 110.727 758.122 108.432C761.668 106.114 765.804 104.955 770.531 104.955C774.213 104.955 777.531 105.636 780.486 107C783.44 108.364 785.861 110.273 787.747 112.727C789.634 115.182 790.804 118.045 791.259 121.318H783.213C782.599 118.932 781.236 116.818 779.122 114.977C777.031 113.114 774.213 112.182 770.668 112.182C767.531 112.182 764.781 113 762.418 114.636C760.077 116.25 758.247 118.534 756.929 121.489C755.634 124.42 754.986 127.864 754.986 131.818C754.986 135.864 755.622 139.386 756.895 142.386C758.19 145.386 760.009 147.716 762.349 149.375C764.713 151.034 767.486 151.864 770.668 151.864C772.759 151.864 774.656 151.5 776.361 150.773C778.065 150.045 779.509 149 780.69 147.636C781.872 146.273 782.713 144.636 783.213 142.727H791.259C790.804 145.818 789.679 148.602 787.884 151.08C786.111 153.534 783.759 155.489 780.827 156.943C777.918 158.375 774.531 159.091 770.668 159.091ZM825.793 105.636V112.455H798.656V105.636H825.793ZM806.565 93.0909H814.611V143C814.611 145.273 814.94 146.977 815.599 148.114C816.281 149.227 817.145 149.977 818.19 150.364C819.259 150.727 820.384 150.909 821.565 150.909C822.452 150.909 823.179 150.864 823.747 150.773C824.315 150.659 824.77 150.568 825.111 150.5L826.747 157.727C826.202 157.932 825.44 158.136 824.463 158.341C823.486 158.568 822.247 158.682 820.747 158.682C818.474 158.682 816.247 158.193 814.065 157.216C811.906 156.239 810.111 154.75 808.679 152.75C807.27 150.75 806.565 148.227 806.565 145.182V93.0909ZM837.895 158V105.636H845.94V158H837.895ZM841.986 96.9091C840.418 96.9091 839.065 96.375 837.929 95.3068C836.815 94.2386 836.259 92.9545 836.259 91.4545C836.259 89.9545 836.815 88.6705 837.929 87.6023C839.065 86.5341 840.418 86 841.986 86C843.554 86 844.895 86.5341 846.009 87.6023C847.145 88.6705 847.713 89.9545 847.713 91.4545C847.713 92.9545 847.145 94.2386 846.009 95.3068C844.895 96.375 843.554 96.9091 841.986 96.9091ZM903.494 105.636L884.131 158H875.949L856.585 105.636H865.312L879.767 147.364H880.312L894.767 105.636H903.494ZM934.193 159.091C929.148 159.091 924.795 157.977 921.136 155.75C917.5 153.5 914.693 150.364 912.716 146.341C910.761 142.295 909.784 137.591 909.784 132.227C909.784 126.864 910.761 122.136 912.716 118.045C914.693 113.932 917.443 110.727 920.966 108.432C924.511 106.114 928.648 104.955 933.375 104.955C936.102 104.955 938.795 105.409 941.455 106.318C944.114 107.227 946.534 108.705 948.716 110.75C950.898 112.773 952.636 115.455 953.932 118.795C955.227 122.136 955.875 126.25 955.875 131.136V134.545H915.511V127.591H947.693C947.693 124.636 947.102 122 945.92 119.682C944.761 117.364 943.102 115.534 940.943 114.193C938.807 112.852 936.284 112.182 933.375 112.182C930.17 112.182 927.398 112.977 925.057 114.568C922.739 116.136 920.955 118.182 919.705 120.705C918.455 123.227 917.83 125.932 917.83 128.818V133.455C917.83 137.409 918.511 140.761 919.875 143.511C921.261 146.239 923.182 148.318 925.636 149.75C928.091 151.159 930.943 151.864 934.193 151.864C936.307 151.864 938.216 151.568 939.92 150.977C941.648 150.364 943.136 149.455 944.386 148.25C945.636 147.023 946.602 145.5 947.284 143.682L955.057 145.864C954.239 148.5 952.864 150.818 950.932 152.818C949 154.795 946.614 156.341 943.773 157.455C940.932 158.545 937.739 159.091 934.193 159.091Z" fill="#42FF00"/>
<g filter="url(#filter0_d_932_48)">
<g clip-path="url(#clip0_932_48)">
<rect x="1043" y="50" width="311" height="132" rx="66" fill="#1B1E2A"/>
<path d="M1216.5 96L1217.12 98.3922C1217.69 100.595 1219.41 102.315 1221.61 102.883L1224 103.5L1221.61 104.117C1219.41 104.685 1217.69 106.405 1217.12 108.608L1216.5 111L1215.88 108.608C1215.31 106.405 1213.59 104.685 1211.39 104.117L1209 103.5L1211.39 102.883C1213.59 102.315 1215.31 100.595 1215.88 98.3922L1216.5 96Z" fill="white"/>
<path d="M1116 79L1116.49 80.9137C1116.95 82.6758 1118.32 84.0518 1120.09 84.5063L1122 85L1120.09 85.4937C1118.32 85.9482 1116.95 87.3242 1116.49 89.0863L1116 91L1115.51 89.0863C1115.05 87.3242 1113.68 85.9482 1111.91 85.4937L1110 85L1111.91 84.5063C1113.68 84.0518 1115.05 82.6758 1115.51 80.9137L1116 79Z" fill="white"/>
<path d="M1185 149L1185.33 150.276C1185.63 151.451 1186.55 152.368 1187.72 152.671L1189 153L1187.72 153.329C1186.55 153.632 1185.63 154.549 1185.33 155.724L1185 157L1184.67 155.724C1184.37 154.549 1183.45 153.632 1182.28 153.329L1181 153L1182.28 152.671C1183.45 152.368 1184.37 151.451 1184.67 150.276L1185 149Z" fill="white"/>
<circle cx="1180.5" cy="97.5" r="1.5" fill="white"/>
<circle cx="1208.5" cy="134.5" r="1.5" fill="white"/>
<circle cx="1169" cy="125" r="1" fill="white"/>
<circle cx="1117" cy="118" r="2" fill="white"/>
<circle cx="1084" cy="102" r="2" fill="white"/>
<circle cx="1117" cy="165" r="1" fill="white"/>
<circle cx="1095" cy="148" r="1" fill="white"/>
<circle cx="1086.5" cy="158.5" r="1.5" fill="white"/>
<circle cx="1295.5" cy="119.5" r="195.5" fill="white" fill-opacity="0.1"/>
<circle cx="1295.5" cy="119.5" r="159.5" fill="white" fill-opacity="0.1"/>
<circle cx="1295.5" cy="119.5" r="118.5" fill="white" fill-opacity="0.1"/>
<circle cx="1295.5" cy="119.5" r="81.5" fill="white" fill-opacity="0.1"/>
<path fill-rule="evenodd" clip-rule="evenodd" d="M1382 201.5C1382 216.756 1372.89 229.884 1359.81 235.741C1359.94 236.977 1360 238.231 1360 239.5C1360 260.211 1343.21 277 1322.5 277C1316.73 277 1311.26 275.695 1306.37 273.365C1303.15 290.797 1287.87 304 1269.5 304C1266 304 1262.62 303.521 1259.4 302.625C1252.59 309.641 1243.05 314 1232.5 314C1221.32 314 1211.27 309.104 1204.4 301.338C1200.1 303.055 1195.41 304 1190.5 304C1183.89 304 1177.68 302.289 1172.29 299.287C1165.43 308.232 1154.64 314 1142.5 314C1135.31 314 1128.6 311.978 1122.89 308.472C1116.08 317.88 1105 324 1092.5 324C1071.79 324 1055 307.211 1055 286.5C1055 265.789 1071.79 249 1092.5 249C1099.69 249 1106.4 251.022 1112.11 254.528C1118.92 245.12 1130 239 1142.5 239C1149.11 239 1155.32 240.711 1160.71 243.713C1167.57 234.768 1178.36 229 1190.5 229C1201.68 229 1211.73 233.896 1218.6 241.662C1222.9 239.945 1227.59 239 1232.5 239C1236 239 1239.38 239.479 1242.6 240.375C1249.41 233.359 1258.95 229 1269.5 229C1275.27 229 1280.74 230.305 1285.63 232.635C1287.89 220.381 1296.12 210.216 1307.19 205.259C1307.06 204.023 1307 202.769 1307 201.5C1307 180.789 1323.79 164 1344.5 164C1365.21 164 1382 180.789 1382 201.5Z" fill="#DFDFDF"/>
<g clip-path="url(#clip1_932_48)">
<g filter="url(#filter1_ii_932_48)">
<circle cx="1289" cy="119" r="51" fill="#F7C024"/>
</g>
<g filter="url(#filter2_ii_932_48)">
<circle cx="1290" cy="119.5" r="51.5" fill="#C2CAD1"/>
</g>
<g filter="url(#filter3_i_932_48)">
<circle cx="1285.88" cy="92.72" r="8.24" fill="#959BA9"/>
</g>
<g filter="url(#filter4_i_932_48)">
<circle cx="1310.6" cy="135.98" r="9.27" fill="#959BA9"/>
</g>
<g filter="url(#filter5_i_932_48)">
<circle cx="1268.89" cy="126.195" r="16.995" fill="#959BA9"/>
</g>
</g>
</g>
</g>
<defs>
<filter id="filter0_d_932_48" x="993" y="0" width="411" height="232" filterUnits="userSpaceOnUse" color-interpolation-filters="sRGB">
<feFlood flood-opacity="0" result="BackgroundImageFix"/>
<feColorMatrix in="SourceAlpha" type="matrix" values="0 0 0 0 0 0 0 0 0 0 0 0 0 0 0 0 0 0 127 0" result="hardAlpha"/>
<feOffset/>
<feGaussianBlur stdDeviation="25"/>
<feComposite in2="hardAlpha" operator="out"/>
<feColorMatrix type="matrix" values="0 0 0 0 1 0 0 0 0 1 0 0 0 0 1 0 0 0 0.68 0"/>
<feBlend mode="normal" in2="BackgroundImageFix" result="effect1_dropShadow_932_48"/>
<feBlend mode="normal" in="SourceGraphic" in2="effect1_dropShadow_932_48" result="shape"/>
</filter>
<filter id="filter1_ii_932_48" x="1235" y="64" width="108" height="109" filterUnits="userSpaceOnUse" color-interpolation-filters="sRGB">
<feFlood flood-opacity="0" result="BackgroundImageFix"/>
<feBlend mode="normal" in="SourceGraphic" in2="BackgroundImageFix" result="shape"/>
<feColorMatrix in="SourceAlpha" type="matrix" values="0 0 0 0 0 0 0 0 0 0 0 0 0 0 0 0 0 0 127 0" result="hardAlpha"/>
<feOffset dx="3" dy="3"/>
<feGaussianBlur stdDeviation="2"/>
<feComposite in2="hardAlpha" operator="arithmetic" k2="-1" k3="1"/>
<feColorMatrix type="matrix" values="0 0 0 0 1 0 0 0 0 1 0 0 0 0 1 0 0 0 1 0"/>
<feBlend mode="normal" in2="shape" result="effect1_innerShadow_932_48"/>
<feColorMatrix in="SourceAlpha" type="matrix" values="0 0 0 0 0 0 0 0 0 0 0 0 0 0 0 0 0 0 127 0" result="hardAlpha"/>
<feOffset dx="-3" dy="-5"/>
<feGaussianBlur stdDeviation="2"/>
<feComposite in2="hardAlpha" operator="arithmetic" k2="-1" k3="1"/>
<feColorMatrix type="matrix" values="0 0 0 0 0 0 0 0 0 0 0 0 0 0 0 0 0 0 0.4 0"/>
<feBlend mode="normal" in2="effect1_innerShadow_932_48" result="effect2_innerShadow_932_48"/>
</filter>
<filter id="filter2_ii_932_48" x="1235.41" y="63.88" width="109.18" height="110.21" filterUnits="userSpaceOnUse" color-interpolation-filters="sRGB">
<feFlood flood-opacity="0" result="BackgroundImageFix"/>
<feBlend mode="normal" in="SourceGraphic" in2="BackgroundImageFix" result="shape"/>
<feColorMatrix in="SourceAlpha" type="matrix" values="0 0 0 0 0 0 0 0 0 0 0 0 0 0 0 0 0 0 127 0" result="hardAlpha"/>
<feOffset dx="3.09" dy="3.09"/>
<feGaussianBlur stdDeviation="2.06"/>
<feComposite in2="hardAlpha" operator="arithmetic" k2="-1" k3="1"/>
<feColorMatrix type="matrix" values="0 0 0 0 1 0 0 0 0 1 0 0 0 0 1 0 0 0 1 0"/>
<feBlend mode="normal" in2="shape" result="effect1_innerShadow_932_48"/>
<feColorMatrix in="SourceAlpha" type="matrix" values="0 0 0 0 0 0 0 0 0 0 0 0 0 0 0 0 0 0 127 0" result="hardAlpha"/>
<feOffset dx="-3.09" dy="-5.15"/>
<feGaussianBlur stdDeviation="2.06"/>
<feComposite in2="hardAlpha" operator="arithmetic" k2="-1" k3="1"/>
<feColorMatrix type="matrix" values="0 0 0 0 0 0 0 0 0 0 0 0 0 0 0 0 0 0 0.4 0"/>
<feBlend mode="normal" in2="effect1_innerShadow_932_48" result="effect2_innerShadow_932_48"/>
</filter>
<filter id="filter3_i_932_48" x="1277.64" y="84.48" width="16.48" height="17.51" filterUnits="userSpaceOnUse" color-interpolation-filters="sRGB">
<feFlood flood-opacity="0" result="BackgroundImageFix"/>
<feBlend mode="normal" in="SourceGraphic" in2="BackgroundImageFix" result="shape"/>
<feColorMatrix in="SourceAlpha" type="matrix" values="0 0 0 0 0 0 0 0 0 0 0 0 0 0 0 0 0 0 127 0" result="hardAlpha"/>
<feOffset dy="1.03"/>
<feGaussianBlur stdDeviation="2.06"/>
<feComposite in2="hardAlpha" operator="arithmetic" k2="-1" k3="1"/>
<feColorMatrix type="matrix" values="0 0 0 0 0 0 0 0 0 0 0 0 0 0 0 0 0 0 0.25 0"/>
<feBlend mode="normal" in2="shape" result="effect1_innerShadow_932_48"/>
</filter>
<filter id="filter4_i_932_48" x="1301.33" y="126.71" width="18.54" height="19.57" filterUnits="userSpaceOnUse" color-interpolation-filters="sRGB">
<feFlood flood-opacity="0" result="BackgroundImageFix"/>
<feBlend mode="normal" in="SourceGraphic" in2="BackgroundImageFix" result="shape"/>
<feColorMatrix in="SourceAlpha" type="matrix" values="0 0 0 0 0 0 0 0 0 0 0 0 0 0 0 0 0 0 127 0" result="hardAlpha"/>
<feOffset dy="1.03"/>
<feGaussianBlur stdDeviation="2.06"/>
<feComposite in2="hardAlpha" operator="arithmetic" k2="-1" k3="1"/>
<feColorMatrix type="matrix" values="0 0 0 0 0 0 0 0 0 0 0 0 0 0 0 0 0 0 0.25 0"/>
<feBlend mode="normal" in2="shape" result="effect1_innerShadow_932_48"/>
</filter>
<filter id="filter5_i_932_48" x="1251.89" y="109.2" width="33.99" height="35.02" filterUnits="userSpaceOnUse" color-interpolation-filters="sRGB">
<feFlood flood-opacity="0" result="BackgroundImageFix"/>
<feBlend mode="normal" in="SourceGraphic" in2="BackgroundImageFix" result="shape"/>
<feColorMatrix in="SourceAlpha" type="matrix" values="0 0 0 0 0 0 0 0 0 0 0 0 0 0 0 0 0 0 127 0" result="hardAlpha"/>
<feOffset dy="1.03"/>
<feGaussianBlur stdDeviation="2.06"/>
<feComposite in2="hardAlpha" operator="arithmetic" k2="-1" k3="1"/>
<feColorMatrix type="matrix" values="0 0 0 0 0 0 0 0 0 0 0 0 0 0 0 0 0 0 0.25 0"/>
<feBlend mode="normal" in2="shape" result="effect1_innerShadow_932_48"/>
</filter>
<clipPath id="clip0_932_48">
<rect x="1043" y="50" width="311" height="132" rx="66" fill="white"/>
</clipPath>
<clipPath id="clip1_932_48">
<rect x="1238" y="68" width="102" height="102" rx="51" fill="white"/>
</clipPath>
</defs>
</svg>
