<svg width="1378" height="171" viewBox="0 0 1378 171" fill="none" xmlns="http://www.w3.org/2000/svg">
<rect width="1378" height="171" fill="#0D1117"/>
<path d="M84 127H62.4545V57.1818H84.9545C91.7273 57.1818 97.5227 58.5795 102.341 61.375C107.159 64.1477 110.852 68.1364 113.42 73.3409C115.989 78.5227 117.273 84.7273 117.273 91.9545C117.273 99.2273 115.977 105.489 113.386 110.739C110.795 115.966 107.023 119.989 102.068 122.807C97.1136 125.602 91.0909 127 84 127ZM70.9091 119.5H83.4545C89.2273 119.5 94.0114 118.386 97.8068 116.159C101.602 113.932 104.432 110.761 106.295 106.648C108.159 102.534 109.091 97.6364 109.091 91.9545C109.091 86.3182 108.17 81.4659 106.33 77.3977C104.489 73.3068 101.739 70.1705 98.0795 67.9886C94.4205 65.7841 89.8636 64.6818 84.4091 64.6818H70.9091V119.5ZM145.773 128.227C142.455 128.227 139.443 127.602 136.739 126.352C134.034 125.08 131.886 123.25 130.295 120.864C128.705 118.455 127.909 115.545 127.909 112.136C127.909 109.136 128.5 106.705 129.682 104.841C130.864 102.955 132.443 101.477 134.42 100.409C136.398 99.3409 138.58 98.5455 140.966 98.0227C143.375 97.4773 145.795 97.0455 148.227 96.7273C151.409 96.3182 153.989 96.0114 155.966 95.8068C157.966 95.5795 159.42 95.2045 160.33 94.6818C161.261 94.1591 161.727 93.25 161.727 91.9545V91.6818C161.727 88.3182 160.807 85.7045 158.966 83.8409C157.148 81.9773 154.386 81.0455 150.682 81.0455C146.841 81.0455 143.83 81.8864 141.648 83.5682C139.466 85.25 137.932 87.0455 137.045 88.9545L129.409 86.2273C130.773 83.0455 132.591 80.5682 134.864 78.7955C137.159 77 139.659 75.75 142.364 75.0455C145.091 74.3182 147.773 73.9545 150.409 73.9545C152.091 73.9545 154.023 74.1591 156.205 74.5682C158.409 74.9545 160.534 75.7614 162.58 76.9886C164.648 78.2159 166.364 80.0682 167.727 82.5455C169.091 85.0227 169.773 88.3409 169.773 92.5V127H161.727V119.909H161.318C160.773 121.045 159.864 122.261 158.591 123.557C157.318 124.852 155.625 125.955 153.511 126.864C151.398 127.773 148.818 128.227 145.773 128.227ZM147 121C150.182 121 152.864 120.375 155.045 119.125C157.25 117.875 158.909 116.261 160.023 114.284C161.159 112.307 161.727 110.227 161.727 108.045V100.682C161.386 101.091 160.636 101.466 159.477 101.807C158.341 102.125 157.023 102.409 155.523 102.659C154.045 102.886 152.602 103.091 151.193 103.273C149.807 103.432 148.682 103.568 147.818 103.682C145.727 103.955 143.773 104.398 141.955 105.011C140.159 105.602 138.705 106.5 137.591 107.705C136.5 108.886 135.955 110.5 135.955 112.545C135.955 115.341 136.989 117.455 139.057 118.886C141.148 120.295 143.795 121 147 121ZM184.457 127V74.6364H192.23V82.5455H192.776C193.73 79.9545 195.457 77.8523 197.957 76.2386C200.457 74.625 203.276 73.8182 206.412 73.8182C207.003 73.8182 207.741 73.8295 208.628 73.8523C209.514 73.875 210.185 73.9091 210.639 73.9545V82.1364C210.366 82.0682 209.741 81.9659 208.764 81.8295C207.81 81.6705 206.798 81.5909 205.73 81.5909C203.185 81.5909 200.912 82.125 198.912 83.1932C196.935 84.2386 195.366 85.6932 194.207 87.5568C193.071 89.3977 192.503 91.5 192.503 93.8636V127H184.457ZM227.676 107.909L227.54 97.9545H229.176L252.085 74.6364H262.04L237.631 99.3182H236.949L227.676 107.909ZM220.176 127V57.1818H228.222V127H220.176ZM253.449 127L232.994 101.091L238.722 95.5L263.676 127H253.449ZM300.486 57.1818H310.577L334.304 115.136H335.122L358.849 57.1818H368.94V127H361.031V73.9545H360.349L338.531 127H330.895L309.077 73.9545H308.395V127H300.486V57.1818ZM406.074 128.091C401.347 128.091 397.199 126.966 393.631 124.716C390.085 122.466 387.312 119.318 385.312 115.273C383.335 111.227 382.347 106.5 382.347 101.091C382.347 95.6364 383.335 90.875 385.312 86.8068C387.312 82.7386 390.085 79.5795 393.631 77.3295C397.199 75.0795 401.347 73.9545 406.074 73.9545C410.801 73.9545 414.938 75.0795 418.483 77.3295C422.051 79.5795 424.824 82.7386 426.801 86.8068C428.801 90.875 429.801 95.6364 429.801 101.091C429.801 106.5 428.801 111.227 426.801 115.273C424.824 119.318 422.051 122.466 418.483 124.716C414.938 126.966 410.801 128.091 406.074 128.091ZM406.074 120.864C409.665 120.864 412.619 119.943 414.938 118.102C417.256 116.261 418.972 113.841 420.085 110.841C421.199 107.841 421.756 104.591 421.756 101.091C421.756 97.5909 421.199 94.3295 420.085 91.3068C418.972 88.2841 417.256 85.8409 414.938 83.9773C412.619 82.1136 409.665 81.1818 406.074 81.1818C402.483 81.1818 399.528 82.1136 397.21 83.9773C394.892 85.8409 393.176 88.2841 392.062 91.3068C390.949 94.3295 390.392 97.5909 390.392 101.091C390.392 104.591 390.949 107.841 392.062 110.841C393.176 113.841 394.892 116.261 397.21 118.102C399.528 119.943 402.483 120.864 406.074 120.864ZM461.855 128.091C457.491 128.091 453.639 126.989 450.298 124.784C446.957 122.557 444.344 119.42 442.457 115.375C440.571 111.307 439.628 106.5 439.628 100.955C439.628 95.4545 440.571 90.6818 442.457 86.6364C444.344 82.5909 446.969 79.4659 450.332 77.2614C453.696 75.0568 457.582 73.9545 461.991 73.9545C465.401 73.9545 468.094 74.5227 470.071 75.6591C472.071 76.7727 473.594 78.0455 474.639 79.4773C475.707 80.8864 476.537 82.0455 477.128 82.9545H477.81V57.1818H485.855V127H478.082V118.955H477.128C476.537 119.909 475.696 121.114 474.605 122.568C473.514 124 471.957 125.284 469.935 126.42C467.912 127.534 465.219 128.091 461.855 128.091ZM462.946 120.864C466.173 120.864 468.901 120.023 471.128 118.341C473.355 116.636 475.048 114.284 476.207 111.284C477.366 108.261 477.946 104.773 477.946 100.818C477.946 96.9091 477.378 93.4886 476.241 90.5568C475.105 87.6023 473.423 85.3068 471.196 83.6705C468.969 82.0114 466.219 81.1818 462.946 81.1818C459.537 81.1818 456.696 82.0568 454.423 83.8068C452.173 85.5341 450.48 87.8864 449.344 90.8636C448.23 93.8182 447.673 97.1364 447.673 100.818C447.673 104.545 448.241 107.932 449.378 110.977C450.537 114 452.241 116.409 454.491 118.205C456.764 119.977 459.582 120.864 462.946 120.864ZM523.662 128.091C518.616 128.091 514.264 126.977 510.605 124.75C506.969 122.5 504.162 119.364 502.185 115.341C500.23 111.295 499.253 106.591 499.253 101.227C499.253 95.8636 500.23 91.1364 502.185 87.0455C504.162 82.9318 506.912 79.7273 510.435 77.4318C513.98 75.1136 518.116 73.9545 522.844 73.9545C525.571 73.9545 528.264 74.4091 530.923 75.3182C533.582 76.2273 536.003 77.7045 538.185 79.75C540.366 81.7727 542.105 84.4545 543.401 87.7955C544.696 91.1364 545.344 95.25 545.344 100.136V103.545H504.98V96.5909H537.162C537.162 93.6364 536.571 91 535.389 88.6818C534.23 86.3636 532.571 84.5341 530.412 83.1932C528.276 81.8523 525.753 81.1818 522.844 81.1818C519.639 81.1818 516.866 81.9773 514.526 83.5682C512.207 85.1364 510.423 87.1818 509.173 89.7045C507.923 92.2273 507.298 94.9318 507.298 97.8182V102.455C507.298 106.409 507.98 109.761 509.344 112.511C510.73 115.239 512.651 117.318 515.105 118.75C517.56 120.159 520.412 120.864 523.662 120.864C525.776 120.864 527.685 120.568 529.389 119.977C531.116 119.364 532.605 118.455 533.855 117.25C535.105 116.023 536.071 114.5 536.753 112.682L544.526 114.864C543.707 117.5 542.332 119.818 540.401 121.818C538.469 123.795 536.082 125.341 533.241 126.455C530.401 127.545 527.207 128.091 523.662 128.091ZM584.582 127V74.6364H592.628V127H584.582ZM588.673 65.9091C587.105 65.9091 585.753 65.375 584.616 64.3068C583.503 63.2386 582.946 61.9545 582.946 60.4545C582.946 58.9545 583.503 57.6705 584.616 56.6023C585.753 55.5341 587.105 55 588.673 55C590.241 55 591.582 55.5341 592.696 56.6023C593.832 57.6705 594.401 58.9545 594.401 60.4545C594.401 61.9545 593.832 63.2386 592.696 64.3068C591.582 65.375 590.241 65.9091 588.673 65.9091ZM644.455 86.3636L637.227 88.4091C636.773 87.2045 636.102 86.0341 635.216 84.8977C634.352 83.7386 633.17 82.7841 631.67 82.0341C630.17 81.2841 628.25 80.9091 625.909 80.9091C622.705 80.9091 620.034 81.6477 617.898 83.125C615.784 84.5795 614.727 86.4318 614.727 88.6818C614.727 90.6818 615.455 92.2614 616.909 93.4205C618.364 94.5795 620.636 95.5455 623.727 96.3182L631.5 98.2273C636.182 99.3636 639.67 101.102 641.966 103.443C644.261 105.761 645.409 108.75 645.409 112.409C645.409 115.409 644.545 118.091 642.818 120.455C641.114 122.818 638.727 124.682 635.659 126.045C632.591 127.409 629.023 128.091 624.955 128.091C619.614 128.091 615.193 126.932 611.693 124.614C608.193 122.295 605.977 118.909 605.045 114.455L612.682 112.545C613.409 115.364 614.784 117.477 616.807 118.886C618.852 120.295 621.523 121 624.818 121C628.568 121 631.545 120.205 633.75 118.614C635.977 117 637.091 115.068 637.091 112.818C637.091 111 636.455 109.477 635.182 108.25C633.909 107 631.955 106.068 629.318 105.455L620.591 103.409C615.795 102.273 612.273 100.511 610.023 98.125C607.795 95.7159 606.682 92.7045 606.682 89.0909C606.682 86.1364 607.511 83.5227 609.17 81.25C610.852 78.9773 613.136 77.1932 616.023 75.8977C618.932 74.6023 622.227 73.9545 625.909 73.9545C631.091 73.9545 635.159 75.0909 638.114 77.3636C641.091 79.6364 643.205 82.6364 644.455 86.3636Z" fill="white"/>
<path d="M688.474 127H679.611L705.247 57.1818H713.974L739.611 127H730.747L709.884 68.2273H709.338L688.474 127ZM691.747 99.7273H727.474V107.227H691.747V99.7273ZM770.668 128.091C765.759 128.091 761.531 126.932 757.986 124.614C754.44 122.295 751.713 119.102 749.804 115.034C747.895 110.966 746.94 106.318 746.94 101.091C746.94 95.7727 747.918 91.0795 749.872 87.0114C751.849 82.9205 754.599 79.7273 758.122 77.4318C761.668 75.1136 765.804 73.9545 770.531 73.9545C774.213 73.9545 777.531 74.6364 780.486 76C783.44 77.3636 785.861 79.2727 787.747 81.7273C789.634 84.1818 790.804 87.0455 791.259 90.3182H783.213C782.599 87.9318 781.236 85.8182 779.122 83.9773C777.031 82.1136 774.213 81.1818 770.668 81.1818C767.531 81.1818 764.781 82 762.418 83.6364C760.077 85.25 758.247 87.5341 756.929 90.4886C755.634 93.4205 754.986 96.8636 754.986 100.818C754.986 104.864 755.622 108.386 756.895 111.386C758.19 114.386 760.009 116.716 762.349 118.375C764.713 120.034 767.486 120.864 770.668 120.864C772.759 120.864 774.656 120.5 776.361 119.773C778.065 119.045 779.509 118 780.69 116.636C781.872 115.273 782.713 113.636 783.213 111.727H791.259C790.804 114.818 789.679 117.602 787.884 120.08C786.111 122.534 783.759 124.489 780.827 125.943C777.918 127.375 774.531 128.091 770.668 128.091ZM825.793 74.6364V81.4545H798.656V74.6364H825.793ZM806.565 62.0909H814.611V112C814.611 114.273 814.94 115.977 815.599 117.114C816.281 118.227 817.145 118.977 818.19 119.364C819.259 119.727 820.384 119.909 821.565 119.909C822.452 119.909 823.179 119.864 823.747 119.773C824.315 119.659 824.77 119.568 825.111 119.5L826.747 126.727C826.202 126.932 825.44 127.136 824.463 127.341C823.486 127.568 822.247 127.682 820.747 127.682C818.474 127.682 816.247 127.193 814.065 126.216C811.906 125.239 810.111 123.75 808.679 121.75C807.27 119.75 806.565 117.227 806.565 114.182V62.0909ZM837.895 127V74.6364H845.94V127H837.895ZM841.986 65.9091C840.418 65.9091 839.065 65.375 837.929 64.3068C836.815 63.2386 836.259 61.9545 836.259 60.4545C836.259 58.9545 836.815 57.6705 837.929 56.6023C839.065 55.5341 840.418 55 841.986 55C843.554 55 844.895 55.5341 846.009 56.6023C847.145 57.6705 847.713 58.9545 847.713 60.4545C847.713 61.9545 847.145 63.2386 846.009 64.3068C844.895 65.375 843.554 65.9091 841.986 65.9091ZM903.494 74.6364L884.131 127H875.949L856.585 74.6364H865.312L879.767 116.364H880.312L894.767 74.6364H903.494ZM934.193 128.091C929.148 128.091 924.795 126.977 921.136 124.75C917.5 122.5 914.693 119.364 912.716 115.341C910.761 111.295 909.784 106.591 909.784 101.227C909.784 95.8636 910.761 91.1364 912.716 87.0455C914.693 82.9318 917.443 79.7273 920.966 77.4318C924.511 75.1136 928.648 73.9545 933.375 73.9545C936.102 73.9545 938.795 74.4091 941.455 75.3182C944.114 76.2273 946.534 77.7045 948.716 79.75C950.898 81.7727 952.636 84.4545 953.932 87.7955C955.227 91.1364 955.875 95.25 955.875 100.136V103.545H915.511V96.5909H947.693C947.693 93.6364 947.102 91 945.92 88.6818C944.761 86.3636 943.102 84.5341 940.943 83.1932C938.807 81.8523 936.284 81.1818 933.375 81.1818C930.17 81.1818 927.398 81.9773 925.057 83.5682C922.739 85.1364 920.955 87.1818 919.705 89.7045C918.455 92.2273 917.83 94.9318 917.83 97.8182V102.455C917.83 106.409 918.511 109.761 919.875 112.511C921.261 115.239 923.182 117.318 925.636 118.75C928.091 120.159 930.943 120.864 934.193 120.864C936.307 120.864 938.216 120.568 939.92 119.977C941.648 119.364 943.136 118.455 944.386 117.25C945.636 116.023 946.602 114.5 947.284 112.682L955.057 114.864C954.239 117.5 952.864 119.818 950.932 121.818C949 123.795 946.614 125.341 943.773 126.455C940.932 127.545 937.739 128.091 934.193 128.091Z" fill="#42FF00"/>
<g filter="url(#filter0_d_932_48)">
<g clip-path="url(#clip0_932_48)">
<rect x="1043" y="19" width="311" height="132" rx="66" fill="#1B1E2A"/>
<path d="M1216.5 65L1217.12 67.3922C1217.69 69.5948 1219.41 71.3147 1221.61 71.8829L1224 72.5L1221.61 73.1171C1219.41 73.6853 1217.69 75.4052 1217.12 77.6078L1216.5 80L1215.88 77.6078C1215.31 75.4052 1213.59 73.6853 1211.39 73.1171L1209 72.5L1211.39 71.8829C1213.59 71.3147 1215.31 69.5948 1215.88 67.3922L1216.5 65Z" fill="white"/>
<path d="M1116 48L1116.49 49.9137C1116.95 51.6758 1118.32 53.0518 1120.09 53.5063L1122 54L1120.09 54.4937C1118.32 54.9482 1116.95 56.3242 1116.49 58.0863L1116 60L1115.51 58.0863C1115.05 56.3242 1113.68 54.9482 1111.91 54.4937L1110 54L1111.91 53.5063C1113.68 53.0518 1115.05 51.6758 1115.51 49.9137L1116 48Z" fill="white"/>
<path d="M1185 118L1185.33 119.276C1185.63 120.451 1186.55 121.368 1187.72 121.671L1189 122L1187.72 122.329C1186.55 122.632 1185.63 123.549 1185.33 124.724L1185 126L1184.67 124.724C1184.37 123.549 1183.45 122.632 1182.28 122.329L1181 122L1182.28 121.671C1183.45 121.368 1184.37 120.451 1184.67 119.276L1185 118Z" fill="white"/>
<circle cx="1180.5" cy="66.5" r="1.5" fill="white"/>
<circle cx="1208.5" cy="103.5" r="1.5" fill="white"/>
<circle cx="1169" cy="94" r="1" fill="white"/>
<circle cx="1117" cy="87" r="2" fill="white"/>
<circle cx="1084" cy="71" r="2" fill="white"/>
<circle cx="1117" cy="134" r="1" fill="white"/>
<circle cx="1095" cy="117" r="1" fill="white"/>
<circle cx="1086.5" cy="127.5" r="1.5" fill="white"/>
<path d="M1371.5 88.5001C1371.5 196.472 1344.47 167.5 1236.5 167.5C1128.53 167.5 1100 196.472 1100 88.5001C1100 -19.4716 1128.53 5.49996 1236.5 5.49996C1344.47 5.49996 1371.5 -19.4716 1371.5 88.5001Z" fill="white" fill-opacity="0.1"/>
<path d="M1376 88.4999C1376 176.589 1357.59 168 1269.5 168C1181.41 168 1136 176.589 1136 88.4999C1136 0.410469 1181.41 4.49998 1269.5 4.49998C1357.59 4.49998 1376 0.410461 1376 88.4999Z" fill="white" fill-opacity="0.1"/>
<path d="M1366 82.5C1366 147.946 1339.45 166 1274 166C1208.55 166 1177 153.946 1177 88.5C1177 23.0543 1208.55 2.5 1274 2.5C1339.45 2.5 1366 17.0543 1366 82.5Z" fill="white" fill-opacity="0.1"/>
<circle cx="1295.5" cy="88.5" r="81.5" fill="white" fill-opacity="0.1"/>
<g clip-path="url(#clip1_932_48)">
<g filter="url(#filter1_ii_932_48)">
<circle cx="1289" cy="88" r="51" fill="#F7C024"/>
</g>
<g filter="url(#filter2_ii_932_48)">
<circle cx="1290" cy="88.5" r="51.5" fill="#C2CAD1"/>
</g>
<g filter="url(#filter3_i_932_48)">
<circle cx="1285.88" cy="61.72" r="8.24" fill="#959BA9"/>
</g>
<g filter="url(#filter4_i_932_48)">
<circle cx="1310.6" cy="104.98" r="9.27" fill="#959BA9"/>
</g>
<g filter="url(#filter5_i_932_48)">
<circle cx="1268.89" cy="95.195" r="16.995" fill="#959BA9"/>
</g>
</g>
</g>
</g>
<defs>
<filter id="filter0_d_932_48" x="1030" y="6" width="337" height="158" filterUnits="userSpaceOnUse" color-interpolation-filters="sRGB">
<feFlood flood-opacity="0" result="BackgroundImageFix"/>
<feColorMatrix in="SourceAlpha" type="matrix" values="0 0 0 0 0 0 0 0 0 0 0 0 0 0 0 0 0 0 127 0" result="hardAlpha"/>
<feMorphology radius="3" operator="erode" in="SourceAlpha" result="effect1_dropShadow_932_48"/>
<feOffset/>
<feGaussianBlur stdDeviation="8"/>
<feComposite in2="hardAlpha" operator="out"/>
<feColorMatrix type="matrix" values="0 0 0 0 1 0 0 0 0 1 0 0 0 0 1 0 0 0 1 0"/>
<feBlend mode="normal" in2="BackgroundImageFix" result="effect1_dropShadow_932_48"/>
<feBlend mode="normal" in="SourceGraphic" in2="effect1_dropShadow_932_48" result="shape"/>
</filter>
<filter id="filter1_ii_932_48" x="1235" y="33" width="108" height="109" filterUnits="userSpaceOnUse" color-interpolation-filters="sRGB">
<feFlood flood-opacity="0" result="BackgroundImageFix"/>
<feBlend mode="normal" in="SourceGraphic" in2="BackgroundImageFix" result="shape"/>
<feColorMatrix in="SourceAlpha" type="matrix" values="0 0 0 0 0 0 0 0 0 0 0 0 0 0 0 0 0 0 127 0" result="hardAlpha"/>
<feOffset dx="3" dy="3"/>
<feGaussianBlur stdDeviation="2"/>
<feComposite in2="hardAlpha" operator="arithmetic" k2="-1" k3="1"/>
<feColorMatrix type="matrix" values="0 0 0 0 1 0 0 0 0 1 0 0 0 0 1 0 0 0 1 0"/>
<feBlend mode="normal" in2="shape" result="effect1_innerShadow_932_48"/>
<feColorMatrix in="SourceAlpha" type="matrix" values="0 0 0 0 0 0 0 0 0 0 0 0 0 0 0 0 0 0 127 0" result="hardAlpha"/>
<feOffset dx="-3" dy="-5"/>
<feGaussianBlur stdDeviation="2"/>
<feComposite in2="hardAlpha" operator="arithmetic" k2="-1" k3="1"/>
<feColorMatrix type="matrix" values="0 0 0 0 0 0 0 0 0 0 0 0 0 0 0 0 0 0 0.4 0"/>
<feBlend mode="normal" in2="effect1_innerShadow_932_48" result="effect2_innerShadow_932_48"/>
</filter>
<filter id="filter2_ii_932_48" x="1235.41" y="32.88" width="109.18" height="110.21" filterUnits="userSpaceOnUse" color-interpolation-filters="sRGB">
<feFlood flood-opacity="0" result="BackgroundImageFix"/>
<feBlend mode="normal" in="SourceGraphic" in2="BackgroundImageFix" result="shape"/>
<feColorMatrix in="SourceAlpha" type="matrix" values="0 0 0 0 0 0 0 0 0 0 0 0 0 0 0 0 0 0 127 0" result="hardAlpha"/>
<feOffset dx="3.09" dy="3.09"/>
<feGaussianBlur stdDeviation="2.06"/>
<feComposite in2="hardAlpha" operator="arithmetic" k2="-1" k3="1"/>
<feColorMatrix type="matrix" values="0 0 0 0 1 0 0 0 0 1 0 0 0 0 1 0 0 0 1 0"/>
<feBlend mode="normal" in2="shape" result="effect1_innerShadow_932_48"/>
<feColorMatrix in="SourceAlpha" type="matrix" values="0 0 0 0 0 0 0 0 0 0 0 0 0 0 0 0 0 0 127 0" result="hardAlpha"/>
<feOffset dx="-3.09" dy="-5.15"/>
<feGaussianBlur stdDeviation="2.06"/>
<feComposite in2="hardAlpha" operator="arithmetic" k2="-1" k3="1"/>
<feColorMatrix type="matrix" values="0 0 0 0 0 0 0 0 0 0 0 0 0 0 0 0 0 0 0.4 0"/>
<feBlend mode="normal" in2="effect1_innerShadow_932_48" result="effect2_innerShadow_932_48"/>
</filter>
<filter id="filter3_i_932_48" x="1277.64" y="53.48" width="16.48" height="17.51" filterUnits="userSpaceOnUse" color-interpolation-filters="sRGB">
<feFlood flood-opacity="0" result="BackgroundImageFix"/>
<feBlend mode="normal" in="SourceGraphic" in2="BackgroundImageFix" result="shape"/>
<feColorMatrix in="SourceAlpha" type="matrix" values="0 0 0 0 0 0 0 0 0 0 0 0 0 0 0 0 0 0 127 0" result="hardAlpha"/>
<feOffset dy="1.03"/>
<feGaussianBlur stdDeviation="2.06"/>
<feComposite in2="hardAlpha" operator="arithmetic" k2="-1" k3="1"/>
<feColorMatrix type="matrix" values="0 0 0 0 0 0 0 0 0 0 0 0 0 0 0 0 0 0 0.25 0"/>
<feBlend mode="normal" in2="shape" result="effect1_innerShadow_932_48"/>
</filter>
<filter id="filter4_i_932_48" x="1301.33" y="95.71" width="18.54" height="19.57" filterUnits="userSpaceOnUse" color-interpolation-filters="sRGB">
<feFlood flood-opacity="0" result="BackgroundImageFix"/>
<feBlend mode="normal" in="SourceGraphic" in2="BackgroundImageFix" result="shape"/>
<feColorMatrix in="SourceAlpha" type="matrix" values="0 0 0 0 0 0 0 0 0 0 0 0 0 0 0 0 0 0 127 0" result="hardAlpha"/>
<feOffset dy="1.03"/>
<feGaussianBlur stdDeviation="2.06"/>
<feComposite in2="hardAlpha" operator="arithmetic" k2="-1" k3="1"/>
<feColorMatrix type="matrix" values="0 0 0 0 0 0 0 0 0 0 0 0 0 0 0 0 0 0 0.25 0"/>
<feBlend mode="normal" in2="shape" result="effect1_innerShadow_932_48"/>
</filter>
<filter id="filter5_i_932_48" x="1251.89" y="78.2" width="33.99" height="35.02" filterUnits="userSpaceOnUse" color-interpolation-filters="sRGB">
<feFlood flood-opacity="0" result="BackgroundImageFix"/>
<feBlend mode="normal" in="SourceGraphic" in2="BackgroundImageFix" result="shape"/>
<feColorMatrix in="SourceAlpha" type="matrix" values="0 0 0 0 0 0 0 0 0 0 0 0 0 0 0 0 0 0 127 0" result="hardAlpha"/>
<feOffset dy="1.03"/>
<feGaussianBlur stdDeviation="2.06"/>
<feComposite in2="hardAlpha" operator="arithmetic" k2="-1" k3="1"/>
<feColorMatrix type="matrix" values="0 0 0 0 0 0 0 0 0 0 0 0 0 0 0 0 0 0 0.25 0"/>
<feBlend mode="normal" in2="shape" result="effect1_innerShadow_932_48"/>
</filter>
<clipPath id="clip0_932_48">
<rect x="1043" y="19" width="311" height="132" rx="66" fill="white"/>
</clipPath>
<clipPath id="clip1_932_48">
<rect x="1238" y="37" width="102" height="102" rx="51" fill="white"/>
</clipPath>
</defs>
</svg>
