<svg width="1378" height="171" viewBox="0 0 1378 171" fill="none" xmlns="http://www.w3.org/2000/svg">
<rect width="1378" height="171" fill="white"/>
<path d="M62.4545 127V57.1818H70.9091V119.5H103.364V127H62.4545ZM115.364 127V74.6364H123.409V127H115.364ZM119.455 65.9091C117.886 65.9091 116.534 65.375 115.398 64.3068C114.284 63.2386 113.727 61.9545 113.727 60.4545C113.727 58.9545 114.284 57.6705 115.398 56.6023C116.534 55.5341 117.886 55 119.455 55C121.023 55 122.364 55.5341 123.477 56.6023C124.614 57.6705 125.182 58.9545 125.182 60.4545C125.182 61.9545 124.614 63.2386 123.477 64.3068C122.364 65.375 121.023 65.9091 119.455 65.9091ZM159.281 147.727C155.395 147.727 152.054 147.227 149.259 146.227C146.463 145.25 144.134 143.955 142.27 142.341C140.429 140.75 138.963 139.045 137.872 137.227L144.281 132.727C145.009 133.682 145.929 134.773 147.043 136C148.156 137.25 149.679 138.33 151.611 139.239C153.565 140.17 156.122 140.636 159.281 140.636C163.509 140.636 166.997 139.614 169.747 137.568C172.497 135.523 173.872 132.318 173.872 127.955V117.318H173.19C172.599 118.273 171.759 119.455 170.668 120.864C169.599 122.25 168.054 123.489 166.031 124.58C164.031 125.648 161.327 126.182 157.918 126.182C153.69 126.182 149.895 125.182 146.531 123.182C143.19 121.182 140.543 118.273 138.588 114.455C136.656 110.636 135.69 106 135.69 100.545C135.69 95.1818 136.634 90.5114 138.52 86.5341C140.406 82.5341 143.031 79.4432 146.395 77.2614C149.759 75.0568 153.645 73.9545 158.054 73.9545C161.463 73.9545 164.168 74.5227 166.168 75.6591C168.19 76.7727 169.736 78.0455 170.804 79.4773C171.895 80.8864 172.736 82.0455 173.327 82.9545H174.145V74.6364H181.918V128.5C181.918 133 180.895 136.659 178.849 139.477C176.827 142.318 174.099 144.398 170.668 145.716C167.259 147.057 163.463 147.727 159.281 147.727ZM159.009 118.955C162.236 118.955 164.963 118.216 167.19 116.739C169.418 115.261 171.111 113.136 172.27 110.364C173.429 107.591 174.009 104.273 174.009 100.409C174.009 96.6364 173.44 93.3068 172.304 90.4205C171.168 87.5341 169.486 85.2727 167.259 83.6364C165.031 82 162.281 81.1818 159.009 81.1818C155.599 81.1818 152.759 82.0455 150.486 83.7727C148.236 85.5 146.543 87.8182 145.406 90.7273C144.293 93.6364 143.736 96.8636 143.736 100.409C143.736 104.045 144.304 107.261 145.44 110.057C146.599 112.83 148.304 115.011 150.554 116.602C152.827 118.17 155.645 118.955 159.009 118.955ZM204.69 95.5V127H196.645V57.1818H204.69V82.8182H205.372C206.599 80.1136 208.44 77.9659 210.895 76.375C213.372 74.7614 216.668 73.9545 220.781 73.9545C224.349 73.9545 227.474 74.6705 230.156 76.1023C232.838 77.5114 234.918 79.6818 236.395 82.6136C237.895 85.5227 238.645 89.2273 238.645 93.7273V127H230.599V94.2727C230.599 90.1136 229.52 86.8977 227.361 84.625C225.224 82.3295 222.259 81.1818 218.463 81.1818C215.827 81.1818 213.463 81.7386 211.372 82.8523C209.304 83.9659 207.668 85.5909 206.463 87.7273C205.281 89.8636 204.69 92.4545 204.69 95.5ZM276.136 74.6364V81.4545H249V74.6364H276.136ZM256.909 62.0909H264.955V112C264.955 114.273 265.284 115.977 265.943 117.114C266.625 118.227 267.489 118.977 268.534 119.364C269.602 119.727 270.727 119.909 271.909 119.909C272.795 119.909 273.523 119.864 274.091 119.773C274.659 119.659 275.114 119.568 275.455 119.5L277.091 126.727C276.545 126.932 275.784 127.136 274.807 127.341C273.83 127.568 272.591 127.682 271.091 127.682C268.818 127.682 266.591 127.193 264.409 126.216C262.25 125.239 260.455 123.75 259.023 121.75C257.614 119.75 256.909 117.227 256.909 114.182V62.0909ZM316.33 57.1818H326.42L350.148 115.136H350.966L374.693 57.1818H384.784V127H376.875V73.9545H376.193L354.375 127H346.739L324.92 73.9545H324.239V127H316.33V57.1818ZM421.918 128.091C417.19 128.091 413.043 126.966 409.474 124.716C405.929 122.466 403.156 119.318 401.156 115.273C399.179 111.227 398.19 106.5 398.19 101.091C398.19 95.6364 399.179 90.875 401.156 86.8068C403.156 82.7386 405.929 79.5795 409.474 77.3295C413.043 75.0795 417.19 73.9545 421.918 73.9545C426.645 73.9545 430.781 75.0795 434.327 77.3295C437.895 79.5795 440.668 82.7386 442.645 86.8068C444.645 90.875 445.645 95.6364 445.645 101.091C445.645 106.5 444.645 111.227 442.645 115.273C440.668 119.318 437.895 122.466 434.327 124.716C430.781 126.966 426.645 128.091 421.918 128.091ZM421.918 120.864C425.509 120.864 428.463 119.943 430.781 118.102C433.099 116.261 434.815 113.841 435.929 110.841C437.043 107.841 437.599 104.591 437.599 101.091C437.599 97.5909 437.043 94.3295 435.929 91.3068C434.815 88.2841 433.099 85.8409 430.781 83.9773C428.463 82.1136 425.509 81.1818 421.918 81.1818C418.327 81.1818 415.372 82.1136 413.054 83.9773C410.736 85.8409 409.02 88.2841 407.906 91.3068C406.793 94.3295 406.236 97.5909 406.236 101.091C406.236 104.591 406.793 107.841 407.906 110.841C409.02 113.841 410.736 116.261 413.054 118.102C415.372 119.943 418.327 120.864 421.918 120.864ZM477.699 128.091C473.335 128.091 469.483 126.989 466.142 124.784C462.801 122.557 460.188 119.42 458.301 115.375C456.415 111.307 455.472 106.5 455.472 100.955C455.472 95.4545 456.415 90.6818 458.301 86.6364C460.188 82.5909 462.813 79.4659 466.176 77.2614C469.54 75.0568 473.426 73.9545 477.835 73.9545C481.244 73.9545 483.938 74.5227 485.915 75.6591C487.915 76.7727 489.438 78.0455 490.483 79.4773C491.551 80.8864 492.381 82.0455 492.972 82.9545H493.653V57.1818H501.699V127H493.926V118.955H492.972C492.381 119.909 491.54 121.114 490.449 122.568C489.358 124 487.801 125.284 485.778 126.42C483.756 127.534 481.063 128.091 477.699 128.091ZM478.79 120.864C482.017 120.864 484.744 120.023 486.972 118.341C489.199 116.636 490.892 114.284 492.051 111.284C493.21 108.261 493.79 104.773 493.79 100.818C493.79 96.9091 493.222 93.4886 492.085 90.5568C490.949 87.6023 489.267 85.3068 487.04 83.6705C484.813 82.0114 482.063 81.1818 478.79 81.1818C475.381 81.1818 472.54 82.0568 470.267 83.8068C468.017 85.5341 466.324 87.8864 465.188 90.8636C464.074 93.8182 463.517 97.1364 463.517 100.818C463.517 104.545 464.085 107.932 465.222 110.977C466.381 114 468.085 116.409 470.335 118.205C472.608 119.977 475.426 120.864 478.79 120.864ZM539.506 128.091C534.46 128.091 530.108 126.977 526.449 124.75C522.812 122.5 520.006 119.364 518.028 115.341C516.074 111.295 515.097 106.591 515.097 101.227C515.097 95.8636 516.074 91.1364 518.028 87.0455C520.006 82.9318 522.756 79.7273 526.278 77.4318C529.824 75.1136 533.96 73.9545 538.688 73.9545C541.415 73.9545 544.108 74.4091 546.767 75.3182C549.426 76.2273 551.847 77.7045 554.028 79.75C556.21 81.7727 557.949 84.4545 559.244 87.7955C560.54 91.1364 561.188 95.25 561.188 100.136V103.545H520.824V96.5909H553.006C553.006 93.6364 552.415 91 551.233 88.6818C550.074 86.3636 548.415 84.5341 546.256 83.1932C544.119 81.8523 541.597 81.1818 538.688 81.1818C535.483 81.1818 532.71 81.9773 530.369 83.5682C528.051 85.1364 526.267 87.1818 525.017 89.7045C523.767 92.2273 523.142 94.9318 523.142 97.8182V102.455C523.142 106.409 523.824 109.761 525.188 112.511C526.574 115.239 528.494 117.318 530.949 118.75C533.403 120.159 536.256 120.864 539.506 120.864C541.619 120.864 543.528 120.568 545.233 119.977C546.96 119.364 548.449 118.455 549.699 117.25C550.949 116.023 551.915 114.5 552.597 112.682L560.369 114.864C559.551 117.5 558.176 119.818 556.244 121.818C554.313 123.795 551.926 125.341 549.085 126.455C546.244 127.545 543.051 128.091 539.506 128.091ZM600.426 127V74.6364H608.472V127H600.426ZM604.517 65.9091C602.949 65.9091 601.597 65.375 600.46 64.3068C599.347 63.2386 598.79 61.9545 598.79 60.4545C598.79 58.9545 599.347 57.6705 600.46 56.6023C601.597 55.5341 602.949 55 604.517 55C606.085 55 607.426 55.5341 608.54 56.6023C609.676 57.6705 610.244 58.9545 610.244 60.4545C610.244 61.9545 609.676 63.2386 608.54 64.3068C607.426 65.375 606.085 65.9091 604.517 65.9091ZM660.298 86.3636L653.071 88.4091C652.616 87.2045 651.946 86.0341 651.06 84.8977C650.196 83.7386 649.014 82.7841 647.514 82.0341C646.014 81.2841 644.094 80.9091 641.753 80.9091C638.548 80.9091 635.878 81.6477 633.741 83.125C631.628 84.5795 630.571 86.4318 630.571 88.6818C630.571 90.6818 631.298 92.2614 632.753 93.4205C634.207 94.5795 636.48 95.5455 639.571 96.3182L647.344 98.2273C652.026 99.3636 655.514 101.102 657.81 103.443C660.105 105.761 661.253 108.75 661.253 112.409C661.253 115.409 660.389 118.091 658.662 120.455C656.957 122.818 654.571 124.682 651.503 126.045C648.435 127.409 644.866 128.091 640.798 128.091C635.457 128.091 631.037 126.932 627.537 124.614C624.037 122.295 621.821 118.909 620.889 114.455L628.526 112.545C629.253 115.364 630.628 117.477 632.651 118.886C634.696 120.295 637.366 121 640.662 121C644.412 121 647.389 120.205 649.594 118.614C651.821 117 652.935 115.068 652.935 112.818C652.935 111 652.298 109.477 651.026 108.25C649.753 107 647.798 106.068 645.162 105.455L636.435 103.409C631.639 102.273 628.116 100.511 625.866 98.125C623.639 95.7159 622.526 92.7045 622.526 89.0909C622.526 86.1364 623.355 83.5227 625.014 81.25C626.696 78.9773 628.98 77.1932 631.866 75.8977C634.776 74.6023 638.071 73.9545 641.753 73.9545C646.935 73.9545 651.003 75.0909 653.957 77.3636C656.935 79.6364 659.048 82.6364 660.298 86.3636Z" fill="black"/>
<path d="M704.318 127H695.455L721.091 57.1818H729.818L755.455 127H746.591L725.727 68.2273H725.182L704.318 127ZM707.591 99.7273H743.318V107.227H707.591V99.7273ZM786.511 128.091C781.602 128.091 777.375 126.932 773.83 124.614C770.284 122.295 767.557 119.102 765.648 115.034C763.739 110.966 762.784 106.318 762.784 101.091C762.784 95.7727 763.761 91.0795 765.716 87.0114C767.693 82.9205 770.443 79.7273 773.966 77.4318C777.511 75.1136 781.648 73.9545 786.375 73.9545C790.057 73.9545 793.375 74.6364 796.33 76C799.284 77.3636 801.705 79.2727 803.591 81.7273C805.477 84.1818 806.648 87.0455 807.102 90.3182H799.057C798.443 87.9318 797.08 85.8182 794.966 83.9773C792.875 82.1136 790.057 81.1818 786.511 81.1818C783.375 81.1818 780.625 82 778.261 83.6364C775.92 85.25 774.091 87.5341 772.773 90.4886C771.477 93.4205 770.83 96.8636 770.83 100.818C770.83 104.864 771.466 108.386 772.739 111.386C774.034 114.386 775.852 116.716 778.193 118.375C780.557 120.034 783.33 120.864 786.511 120.864C788.602 120.864 790.5 120.5 792.205 119.773C793.909 119.045 795.352 118 796.534 116.636C797.716 115.273 798.557 113.636 799.057 111.727H807.102C806.648 114.818 805.523 117.602 803.727 120.08C801.955 122.534 799.602 124.489 796.67 125.943C793.761 127.375 790.375 128.091 786.511 128.091ZM841.636 74.6364V81.4545H814.5V74.6364H841.636ZM822.409 62.0909H830.455V112C830.455 114.273 830.784 115.977 831.443 117.114C832.125 118.227 832.989 118.977 834.034 119.364C835.102 119.727 836.227 119.909 837.409 119.909C838.295 119.909 839.023 119.864 839.591 119.773C840.159 119.659 840.614 119.568 840.955 119.5L842.591 126.727C842.045 126.932 841.284 127.136 840.307 127.341C839.33 127.568 838.091 127.682 836.591 127.682C834.318 127.682 832.091 127.193 829.909 126.216C827.75 125.239 825.955 123.75 824.523 121.75C823.114 119.75 822.409 117.227 822.409 114.182V62.0909ZM853.739 127V74.6364H861.784V127H853.739ZM857.83 65.9091C856.261 65.9091 854.909 65.375 853.773 64.3068C852.659 63.2386 852.102 61.9545 852.102 60.4545C852.102 58.9545 852.659 57.6705 853.773 56.6023C854.909 55.5341 856.261 55 857.83 55C859.398 55 860.739 55.5341 861.852 56.6023C862.989 57.6705 863.557 58.9545 863.557 60.4545C863.557 61.9545 862.989 63.2386 861.852 64.3068C860.739 65.375 859.398 65.9091 857.83 65.9091ZM919.338 74.6364L899.974 127H891.793L872.429 74.6364H881.156L895.611 116.364H896.156L910.611 74.6364H919.338ZM950.037 128.091C944.991 128.091 940.639 126.977 936.98 124.75C933.344 122.5 930.537 119.364 928.56 115.341C926.605 111.295 925.628 106.591 925.628 101.227C925.628 95.8636 926.605 91.1364 928.56 87.0455C930.537 82.9318 933.287 79.7273 936.81 77.4318C940.355 75.1136 944.491 73.9545 949.219 73.9545C951.946 73.9545 954.639 74.4091 957.298 75.3182C959.957 76.2273 962.378 77.7045 964.56 79.75C966.741 81.7727 968.48 84.4545 969.776 87.7955C971.071 91.1364 971.719 95.25 971.719 100.136V103.545H931.355V96.5909H963.537C963.537 93.6364 962.946 91 961.764 88.6818C960.605 86.3636 958.946 84.5341 956.787 83.1932C954.651 81.8523 952.128 81.1818 949.219 81.1818C946.014 81.1818 943.241 81.9773 940.901 83.5682C938.582 85.1364 936.798 87.1818 935.548 89.7045C934.298 92.2273 933.673 94.9318 933.673 97.8182V102.455C933.673 106.409 934.355 109.761 935.719 112.511C937.105 115.239 939.026 117.318 941.48 118.75C943.935 120.159 946.787 120.864 950.037 120.864C952.151 120.864 954.06 120.568 955.764 119.977C957.491 119.364 958.98 118.455 960.23 117.25C961.48 116.023 962.446 114.5 963.128 112.682L970.901 114.864C970.082 117.5 968.707 119.818 966.776 121.818C964.844 123.795 962.457 125.341 959.616 126.455C956.776 127.545 953.582 128.091 950.037 128.091Z" fill="#00F0FF"/>
<g filter="url(#filter0_d_932_254)">
<g clip-path="url(#clip0_932_254)">
<rect x="1043" y="19" width="311" height="132" rx="66" fill="#3572AF"/>
<path d="M1216.5 5L1217.12 7.39217C1217.69 9.59476 1219.41 11.3147 1221.61 11.8829L1224 12.5L1221.61 13.1171C1219.41 13.6853 1217.69 15.4052 1217.12 17.6078L1216.5 20L1215.88 17.6078C1215.31 15.4052 1213.59 13.6853 1211.39 13.1171L1209 12.5L1211.39 11.8829C1213.59 11.3147 1215.31 9.59476 1215.88 7.39217L1216.5 5Z" fill="white" fill-opacity="0.01"/>
<path d="M1185 58L1185.33 59.2758C1185.63 60.4505 1186.55 61.3679 1187.72 61.6709L1189 62L1187.72 62.3291C1186.55 62.6321 1185.63 63.5495 1185.33 64.7242L1185 66L1184.67 64.7242C1184.37 63.5495 1183.45 62.6321 1182.28 62.3291L1181 62L1182.28 61.6709C1183.45 61.3679 1184.37 60.4505 1184.67 59.2758L1185 58Z" fill="white" fill-opacity="0.01"/>
<circle cx="1208.5" cy="43.5" r="1.5" fill="white" fill-opacity="0.01"/>
<circle cx="1169" cy="34" r="1" fill="white" fill-opacity="0.01"/>
<circle cx="1117" cy="27" r="2" fill="white" fill-opacity="0.01"/>
<circle cx="1117" cy="74" r="1" fill="white" fill-opacity="0.01"/>
<circle cx="1095" cy="57" r="1" fill="white" fill-opacity="0.01"/>
<circle cx="1086.5" cy="67.5" r="1.5" fill="white" fill-opacity="0.01"/>
<circle cx="1115.5" cy="88.5" r="195.5" fill="white" fill-opacity="0.1"/>
<circle cx="1115.5" cy="88.5" r="159.5" fill="white" fill-opacity="0.1"/>
<circle cx="1115.5" cy="88.5" r="118.5" fill="white" fill-opacity="0.1"/>
<circle cx="1115.5" cy="88.5" r="81.5" fill="white" fill-opacity="0.1"/>
<path fill-rule="evenodd" clip-rule="evenodd" d="M1382 60.5C1382 75.7556 1372.89 88.8835 1359.81 94.7408C1359.94 95.9772 1360 97.2312 1360 98.5C1360 119.211 1343.21 136 1322.5 136C1316.73 136 1311.26 134.695 1306.37 132.365C1303.15 149.797 1287.87 163 1269.5 163C1266 163 1262.62 162.521 1259.4 161.625C1252.59 168.641 1243.05 173 1232.5 173C1221.32 173 1211.27 168.104 1204.4 160.338C1200.1 162.055 1195.41 163 1190.5 163C1183.89 163 1177.68 161.289 1172.29 158.287C1165.43 167.232 1154.64 173 1142.5 173C1135.31 173 1128.6 170.978 1122.89 167.472C1116.08 176.88 1105 183 1092.5 183C1071.79 183 1055 166.211 1055 145.5C1055 124.789 1071.79 108 1092.5 108C1099.69 108 1106.4 110.022 1112.11 113.528C1118.92 104.12 1130 98 1142.5 98C1149.11 98 1155.32 99.7105 1160.71 102.713C1167.57 93.7681 1178.36 88 1190.5 88C1201.68 88 1211.73 92.8963 1218.6 100.662C1222.9 98.9447 1227.59 98 1232.5 98C1236 98 1239.38 98.479 1242.6 99.3751C1249.41 92.3592 1258.95 88 1269.5 88C1275.27 88 1280.74 89.3046 1285.63 91.6352C1287.89 79.3807 1296.12 69.2162 1307.19 64.2592C1307.06 63.0228 1307 61.7688 1307 60.5C1307 39.7893 1323.79 23 1344.5 23C1365.21 23 1382 39.7893 1382 60.5Z" fill="#ACC9E6"/>
<path fill-rule="evenodd" clip-rule="evenodd" d="M1392 88.5C1392 103.756 1382.89 116.884 1369.81 122.741C1369.94 123.977 1370 125.231 1370 126.5C1370 147.211 1353.21 164 1332.5 164C1326.73 164 1321.26 162.695 1316.37 160.365C1313.15 177.797 1297.87 191 1279.5 191C1276 191 1272.62 190.521 1269.4 189.625C1262.59 196.641 1253.05 201 1242.5 201C1231.32 201 1221.27 196.104 1214.4 188.338C1210.1 190.055 1205.41 191 1200.5 191C1193.89 191 1187.68 189.289 1182.29 186.287C1175.43 195.232 1164.64 201 1152.5 201C1145.31 201 1138.6 198.978 1132.89 195.472C1126.08 204.88 1115 211 1102.5 211C1081.79 211 1065 194.211 1065 173.5C1065 152.789 1081.79 136 1102.5 136C1109.69 136 1116.4 138.022 1122.11 141.528C1128.92 132.12 1140 126 1152.5 126C1159.11 126 1165.32 127.711 1170.71 130.713C1177.57 121.768 1188.36 116 1200.5 116C1211.68 116 1221.73 120.896 1228.6 128.662C1232.9 126.945 1237.59 126 1242.5 126C1246 126 1249.38 126.479 1252.6 127.375C1259.41 120.359 1268.95 116 1279.5 116C1285.27 116 1290.74 117.305 1295.63 119.635C1297.89 107.381 1306.12 97.2162 1317.19 92.2592C1317.06 91.0228 1317 89.7688 1317 88.5C1317 67.7893 1333.79 51 1354.5 51C1375.21 51 1392 67.7893 1392 88.5Z" fill="white"/>
<g clip-path="url(#clip1_932_254)">
<g filter="url(#filter1_ii_932_254)">
<circle cx="1116" cy="88" r="51" fill="#F7C024"/>
</g>
</g>
</g>
</g>
<defs>
<filter id="filter0_d_932_254" x="1033" y="19" width="331" height="152" filterUnits="userSpaceOnUse" color-interpolation-filters="sRGB">
<feFlood flood-opacity="0" result="BackgroundImageFix"/>
<feColorMatrix in="SourceAlpha" type="matrix" values="0 0 0 0 0 0 0 0 0 0 0 0 0 0 0 0 0 0 127 0" result="hardAlpha"/>
<feOffset dy="10"/>
<feGaussianBlur stdDeviation="5"/>
<feComposite in2="hardAlpha" operator="out"/>
<feColorMatrix type="matrix" values="0 0 0 0 0 0 0 0 0 0 0 0 0 0 0 0 0 0 0.25 0"/>
<feBlend mode="normal" in2="BackgroundImageFix" result="effect1_dropShadow_932_254"/>
<feBlend mode="normal" in="SourceGraphic" in2="effect1_dropShadow_932_254" result="shape"/>
</filter>
<filter id="filter1_ii_932_254" x="1062" y="33" width="108" height="109" filterUnits="userSpaceOnUse" color-interpolation-filters="sRGB">
<feFlood flood-opacity="0" result="BackgroundImageFix"/>
<feBlend mode="normal" in="SourceGraphic" in2="BackgroundImageFix" result="shape"/>
<feColorMatrix in="SourceAlpha" type="matrix" values="0 0 0 0 0 0 0 0 0 0 0 0 0 0 0 0 0 0 127 0" result="hardAlpha"/>
<feOffset dx="3" dy="3"/>
<feGaussianBlur stdDeviation="2"/>
<feComposite in2="hardAlpha" operator="arithmetic" k2="-1" k3="1"/>
<feColorMatrix type="matrix" values="0 0 0 0 1 0 0 0 0 1 0 0 0 0 1 0 0 0 1 0"/>
<feBlend mode="normal" in2="shape" result="effect1_innerShadow_932_254"/>
<feColorMatrix in="SourceAlpha" type="matrix" values="0 0 0 0 0 0 0 0 0 0 0 0 0 0 0 0 0 0 127 0" result="hardAlpha"/>
<feOffset dx="-3" dy="-5"/>
<feGaussianBlur stdDeviation="2"/>
<feComposite in2="hardAlpha" operator="arithmetic" k2="-1" k3="1"/>
<feColorMatrix type="matrix" values="0 0 0 0 0 0 0 0 0 0 0 0 0 0 0 0 0 0 0.4 0"/>
<feBlend mode="normal" in2="effect1_innerShadow_932_254" result="effect2_innerShadow_932_254"/>
</filter>
<clipPath id="clip0_932_254">
<rect x="1043" y="19" width="311" height="132" rx="66" fill="white"/>
</clipPath>
<clipPath id="clip1_932_254">
<rect x="1065" y="37" width="102" height="102" rx="51" fill="white"/>
</clipPath>
</defs>
</svg>
