<svg width="1378" height="171" viewBox="0 0 1378 171" fill="none" xmlns="http://www.w3.org/2000/svg">
<rect width="1378" height="171" fill="white"/>
<path d="M84 127H62.4545V57.1818H84.9545C91.7273 57.1818 97.5227 58.5795 102.341 61.375C107.159 64.1477 110.852 68.1364 113.42 73.3409C115.989 78.5227 117.273 84.7273 117.273 91.9545C117.273 99.2273 115.977 105.489 113.386 110.739C110.795 115.966 107.023 119.989 102.068 122.807C97.1136 125.602 91.0909 127 84 127ZM70.9091 119.5H83.4545C89.2273 119.5 94.0114 118.386 97.8068 116.159C101.602 113.932 104.432 110.761 106.295 106.648C108.159 102.534 109.091 97.6364 109.091 91.9545C109.091 86.3182 108.17 81.4659 106.33 77.3977C104.489 73.3068 101.739 70.1705 98.0795 67.9886C94.4205 65.7841 89.8636 64.6818 84.4091 64.6818H70.9091V119.5ZM145.773 128.227C142.455 128.227 139.443 127.602 136.739 126.352C134.034 125.08 131.886 123.25 130.295 120.864C128.705 118.455 127.909 115.545 127.909 112.136C127.909 109.136 128.5 106.705 129.682 104.841C130.864 102.955 132.443 101.477 134.42 100.409C136.398 99.3409 138.58 98.5455 140.966 98.0227C143.375 97.4773 145.795 97.0455 148.227 96.7273C151.409 96.3182 153.989 96.0114 155.966 95.8068C157.966 95.5795 159.42 95.2045 160.33 94.6818C161.261 94.1591 161.727 93.25 161.727 91.9545V91.6818C161.727 88.3182 160.807 85.7045 158.966 83.8409C157.148 81.9773 154.386 81.0455 150.682 81.0455C146.841 81.0455 143.83 81.8864 141.648 83.5682C139.466 85.25 137.932 87.0455 137.045 88.9545L129.409 86.2273C130.773 83.0455 132.591 80.5682 134.864 78.7955C137.159 77 139.659 75.75 142.364 75.0455C145.091 74.3182 147.773 73.9545 150.409 73.9545C152.091 73.9545 154.023 74.1591 156.205 74.5682C158.409 74.9545 160.534 75.7614 162.58 76.9886C164.648 78.2159 166.364 80.0682 167.727 82.5455C169.091 85.0227 169.773 88.3409 169.773 92.5V127H161.727V119.909H161.318C160.773 121.045 159.864 122.261 158.591 123.557C157.318 124.852 155.625 125.955 153.511 126.864C151.398 127.773 148.818 128.227 145.773 128.227ZM147 121C150.182 121 152.864 120.375 155.045 119.125C157.25 117.875 158.909 116.261 160.023 114.284C161.159 112.307 161.727 110.227 161.727 108.045V100.682C161.386 101.091 160.636 101.466 159.477 101.807C158.341 102.125 157.023 102.409 155.523 102.659C154.045 102.886 152.602 103.091 151.193 103.273C149.807 103.432 148.682 103.568 147.818 103.682C145.727 103.955 143.773 104.398 141.955 105.011C140.159 105.602 138.705 106.5 137.591 107.705C136.5 108.886 135.955 110.5 135.955 112.545C135.955 115.341 136.989 117.455 139.057 118.886C141.148 120.295 143.795 121 147 121ZM184.457 127V74.6364H192.23V82.5455H192.776C193.73 79.9545 195.457 77.8523 197.957 76.2386C200.457 74.625 203.276 73.8182 206.412 73.8182C207.003 73.8182 207.741 73.8295 208.628 73.8523C209.514 73.875 210.185 73.9091 210.639 73.9545V82.1364C210.366 82.0682 209.741 81.9659 208.764 81.8295C207.81 81.6705 206.798 81.5909 205.73 81.5909C203.185 81.5909 200.912 82.125 198.912 83.1932C196.935 84.2386 195.366 85.6932 194.207 87.5568C193.071 89.3977 192.503 91.5 192.503 93.8636V127H184.457ZM227.676 107.909L227.54 97.9545H229.176L252.085 74.6364H262.04L237.631 99.3182H236.949L227.676 107.909ZM220.176 127V57.1818H228.222V127H220.176ZM253.449 127L232.994 101.091L238.722 95.5L263.676 127H253.449ZM300.486 57.1818H310.577L334.304 115.136H335.122L358.849 57.1818H368.94V127H361.031V73.9545H360.349L338.531 127H330.895L309.077 73.9545H308.395V127H300.486V57.1818ZM406.074 128.091C401.347 128.091 397.199 126.966 393.631 124.716C390.085 122.466 387.312 119.318 385.312 115.273C383.335 111.227 382.347 106.5 382.347 101.091C382.347 95.6364 383.335 90.875 385.312 86.8068C387.312 82.7386 390.085 79.5795 393.631 77.3295C397.199 75.0795 401.347 73.9545 406.074 73.9545C410.801 73.9545 414.938 75.0795 418.483 77.3295C422.051 79.5795 424.824 82.7386 426.801 86.8068C428.801 90.875 429.801 95.6364 429.801 101.091C429.801 106.5 428.801 111.227 426.801 115.273C424.824 119.318 422.051 122.466 418.483 124.716C414.938 126.966 410.801 128.091 406.074 128.091ZM406.074 120.864C409.665 120.864 412.619 119.943 414.938 118.102C417.256 116.261 418.972 113.841 420.085 110.841C421.199 107.841 421.756 104.591 421.756 101.091C421.756 97.5909 421.199 94.3295 420.085 91.3068C418.972 88.2841 417.256 85.8409 414.938 83.9773C412.619 82.1136 409.665 81.1818 406.074 81.1818C402.483 81.1818 399.528 82.1136 397.21 83.9773C394.892 85.8409 393.176 88.2841 392.062 91.3068C390.949 94.3295 390.392 97.5909 390.392 101.091C390.392 104.591 390.949 107.841 392.062 110.841C393.176 113.841 394.892 116.261 397.21 118.102C399.528 119.943 402.483 120.864 406.074 120.864ZM461.855 128.091C457.491 128.091 453.639 126.989 450.298 124.784C446.957 122.557 444.344 119.42 442.457 115.375C440.571 111.307 439.628 106.5 439.628 100.955C439.628 95.4545 440.571 90.6818 442.457 86.6364C444.344 82.5909 446.969 79.4659 450.332 77.2614C453.696 75.0568 457.582 73.9545 461.991 73.9545C465.401 73.9545 468.094 74.5227 470.071 75.6591C472.071 76.7727 473.594 78.0455 474.639 79.4773C475.707 80.8864 476.537 82.0455 477.128 82.9545H477.81V57.1818H485.855V127H478.082V118.955H477.128C476.537 119.909 475.696 121.114 474.605 122.568C473.514 124 471.957 125.284 469.935 126.42C467.912 127.534 465.219 128.091 461.855 128.091ZM462.946 120.864C466.173 120.864 468.901 120.023 471.128 118.341C473.355 116.636 475.048 114.284 476.207 111.284C477.366 108.261 477.946 104.773 477.946 100.818C477.946 96.9091 477.378 93.4886 476.241 90.5568C475.105 87.6023 473.423 85.3068 471.196 83.6705C468.969 82.0114 466.219 81.1818 462.946 81.1818C459.537 81.1818 456.696 82.0568 454.423 83.8068C452.173 85.5341 450.48 87.8864 449.344 90.8636C448.23 93.8182 447.673 97.1364 447.673 100.818C447.673 104.545 448.241 107.932 449.378 110.977C450.537 114 452.241 116.409 454.491 118.205C456.764 119.977 459.582 120.864 462.946 120.864ZM523.662 128.091C518.616 128.091 514.264 126.977 510.605 124.75C506.969 122.5 504.162 119.364 502.185 115.341C500.23 111.295 499.253 106.591 499.253 101.227C499.253 95.8636 500.23 91.1364 502.185 87.0455C504.162 82.9318 506.912 79.7273 510.435 77.4318C513.98 75.1136 518.116 73.9545 522.844 73.9545C525.571 73.9545 528.264 74.4091 530.923 75.3182C533.582 76.2273 536.003 77.7045 538.185 79.75C540.366 81.7727 542.105 84.4545 543.401 87.7955C544.696 91.1364 545.344 95.25 545.344 100.136V103.545H504.98V96.5909H537.162C537.162 93.6364 536.571 91 535.389 88.6818C534.23 86.3636 532.571 84.5341 530.412 83.1932C528.276 81.8523 525.753 81.1818 522.844 81.1818C519.639 81.1818 516.866 81.9773 514.526 83.5682C512.207 85.1364 510.423 87.1818 509.173 89.7045C507.923 92.2273 507.298 94.9318 507.298 97.8182V102.455C507.298 106.409 507.98 109.761 509.344 112.511C510.73 115.239 512.651 117.318 515.105 118.75C517.56 120.159 520.412 120.864 523.662 120.864C525.776 120.864 527.685 120.568 529.389 119.977C531.116 119.364 532.605 118.455 533.855 117.25C535.105 116.023 536.071 114.5 536.753 112.682L544.526 114.864C543.707 117.5 542.332 119.818 540.401 121.818C538.469 123.795 536.082 125.341 533.241 126.455C530.401 127.545 527.207 128.091 523.662 128.091ZM584.582 127V74.6364H592.628V127H584.582ZM588.673 65.9091C587.105 65.9091 585.753 65.375 584.616 64.3068C583.503 63.2386 582.946 61.9545 582.946 60.4545C582.946 58.9545 583.503 57.6705 584.616 56.6023C585.753 55.5341 587.105 55 588.673 55C590.241 55 591.582 55.5341 592.696 56.6023C593.832 57.6705 594.401 58.9545 594.401 60.4545C594.401 61.9545 593.832 63.2386 592.696 64.3068C591.582 65.375 590.241 65.9091 588.673 65.9091ZM644.455 86.3636L637.227 88.4091C636.773 87.2045 636.102 86.0341 635.216 84.8977C634.352 83.7386 633.17 82.7841 631.67 82.0341C630.17 81.2841 628.25 80.9091 625.909 80.9091C622.705 80.9091 620.034 81.6477 617.898 83.125C615.784 84.5795 614.727 86.4318 614.727 88.6818C614.727 90.6818 615.455 92.2614 616.909 93.4205C618.364 94.5795 620.636 95.5455 623.727 96.3182L631.5 98.2273C636.182 99.3636 639.67 101.102 641.966 103.443C644.261 105.761 645.409 108.75 645.409 112.409C645.409 115.409 644.545 118.091 642.818 120.455C641.114 122.818 638.727 124.682 635.659 126.045C632.591 127.409 629.023 128.091 624.955 128.091C619.614 128.091 615.193 126.932 611.693 124.614C608.193 122.295 605.977 118.909 605.045 114.455L612.682 112.545C613.409 115.364 614.784 117.477 616.807 118.886C618.852 120.295 621.523 121 624.818 121C628.568 121 631.545 120.205 633.75 118.614C635.977 117 637.091 115.068 637.091 112.818C637.091 111 636.455 109.477 635.182 108.25C633.909 107 631.955 106.068 629.318 105.455L620.591 103.409C615.795 102.273 612.273 100.511 610.023 98.125C607.795 95.7159 606.682 92.7045 606.682 89.0909C606.682 86.1364 607.511 83.5227 609.17 81.25C610.852 78.9773 613.136 77.1932 616.023 75.8977C618.932 74.6023 622.227 73.9545 625.909 73.9545C631.091 73.9545 635.159 75.0909 638.114 77.3636C641.091 79.6364 643.205 82.6364 644.455 86.3636Z" fill="black"/>
<path d="M744.52 92.0909C744.52 99.4545 743.19 105.818 740.531 111.182C737.872 116.545 734.224 120.682 729.588 123.591C724.952 126.5 719.656 127.955 713.702 127.955C707.747 127.955 702.452 126.5 697.815 123.591C693.179 120.682 689.531 116.545 686.872 111.182C684.213 105.818 682.884 99.4545 682.884 92.0909C682.884 84.7273 684.213 78.3636 686.872 73C689.531 67.6364 693.179 63.5 697.815 60.5909C702.452 57.6818 707.747 56.2273 713.702 56.2273C719.656 56.2273 724.952 57.6818 729.588 60.5909C734.224 63.5 737.872 67.6364 740.531 73C743.19 78.3636 744.52 84.7273 744.52 92.0909ZM736.338 92.0909C736.338 86.0455 735.327 80.9432 733.304 76.7841C731.304 72.625 728.588 69.4773 725.156 67.3409C721.747 65.2045 717.929 64.1364 713.702 64.1364C709.474 64.1364 705.645 65.2045 702.213 67.3409C698.804 69.4773 696.088 72.625 694.065 76.7841C692.065 80.9432 691.065 86.0455 691.065 92.0909C691.065 98.1364 692.065 103.239 694.065 107.398C696.088 111.557 698.804 114.705 702.213 116.841C705.645 118.977 709.474 120.045 713.702 120.045C717.929 120.045 721.747 118.977 725.156 116.841C728.588 114.705 731.304 111.557 733.304 107.398C735.327 103.239 736.338 98.1364 736.338 92.0909ZM780.963 74.6364V81.4545H752.736V74.6364H780.963ZM761.19 127V67.4091C761.19 64.4091 761.895 61.9091 763.304 59.9091C764.713 57.9091 766.543 56.4091 768.793 55.4091C771.043 54.4091 773.418 53.9091 775.918 53.9091C777.895 53.9091 779.509 54.0682 780.759 54.3864C782.009 54.7045 782.94 55 783.554 55.2727L781.236 62.2273C780.827 62.0909 780.259 61.9205 779.531 61.7159C778.827 61.5114 777.895 61.4091 776.736 61.4091C774.077 61.4091 772.156 62.0795 770.974 63.4205C769.815 64.7614 769.236 66.7273 769.236 69.3182V127H761.19ZM815.557 74.6364V81.4545H787.33V74.6364H815.557ZM795.784 127V67.4091C795.784 64.4091 796.489 61.9091 797.898 59.9091C799.307 57.9091 801.136 56.4091 803.386 55.4091C805.636 54.4091 808.011 53.9091 810.511 53.9091C812.489 53.9091 814.102 54.0682 815.352 54.3864C816.602 54.7045 817.534 55 818.148 55.2727L815.83 62.2273C815.42 62.0909 814.852 61.9205 814.125 61.7159C813.42 61.5114 812.489 61.4091 811.33 61.4091C808.67 61.4091 806.75 62.0795 805.568 63.4205C804.409 64.7614 803.83 66.7273 803.83 69.3182V127H795.784Z" fill="#A1A1A1"/>
<g filter="url(#filter0_d_932_254)">
<g clip-path="url(#clip0_932_254)">
<rect x="1043" y="19" width="311" height="132" rx="66" fill="#3572AF"/>
<path d="M1216.5 5L1217.12 7.39217C1217.69 9.59476 1219.41 11.3147 1221.61 11.8829L1224 12.5L1221.61 13.1171C1219.41 13.6853 1217.69 15.4052 1217.12 17.6078L1216.5 20L1215.88 17.6078C1215.31 15.4052 1213.59 13.6853 1211.39 13.1171L1209 12.5L1211.39 11.8829C1213.59 11.3147 1215.31 9.59476 1215.88 7.39217L1216.5 5Z" fill="white" fill-opacity="0.01"/>
<path d="M1185 58L1185.33 59.2758C1185.63 60.4505 1186.55 61.3679 1187.72 61.6709L1189 62L1187.72 62.3291C1186.55 62.6321 1185.63 63.5495 1185.33 64.7242L1185 66L1184.67 64.7242C1184.37 63.5495 1183.45 62.6321 1182.28 62.3291L1181 62L1182.28 61.6709C1183.45 61.3679 1184.37 60.4505 1184.67 59.2758L1185 58Z" fill="white" fill-opacity="0.01"/>
<circle cx="1208.5" cy="43.5" r="1.5" fill="white" fill-opacity="0.01"/>
<circle cx="1169" cy="34" r="1" fill="white" fill-opacity="0.01"/>
<circle cx="1117" cy="27" r="2" fill="white" fill-opacity="0.01"/>
<circle cx="1117" cy="74" r="1" fill="white" fill-opacity="0.01"/>
<circle cx="1095" cy="57" r="1" fill="white" fill-opacity="0.01"/>
<circle cx="1086.5" cy="67.5" r="1.5" fill="white" fill-opacity="0.01"/>
<circle cx="1115.5" cy="88.5" r="195.5" fill="white" fill-opacity="0.1"/>
<circle cx="1115.5" cy="88.5" r="159.5" fill="white" fill-opacity="0.1"/>
<circle cx="1115.5" cy="88.5" r="118.5" fill="white" fill-opacity="0.1"/>
<circle cx="1115.5" cy="88.5" r="81.5" fill="white" fill-opacity="0.1"/>
<path fill-rule="evenodd" clip-rule="evenodd" d="M1382 60.5C1382 75.7556 1372.89 88.8835 1359.81 94.7408C1359.94 95.9772 1360 97.2312 1360 98.5C1360 119.211 1343.21 136 1322.5 136C1316.73 136 1311.26 134.695 1306.37 132.365C1303.15 149.797 1287.87 163 1269.5 163C1266 163 1262.62 162.521 1259.4 161.625C1252.59 168.641 1243.05 173 1232.5 173C1221.32 173 1211.27 168.104 1204.4 160.338C1200.1 162.055 1195.41 163 1190.5 163C1183.89 163 1177.68 161.289 1172.29 158.287C1165.43 167.232 1154.64 173 1142.5 173C1135.31 173 1128.6 170.978 1122.89 167.472C1116.08 176.88 1105 183 1092.5 183C1071.79 183 1055 166.211 1055 145.5C1055 124.789 1071.79 108 1092.5 108C1099.69 108 1106.4 110.022 1112.11 113.528C1118.92 104.12 1130 98 1142.5 98C1149.11 98 1155.32 99.7105 1160.71 102.713C1167.57 93.7681 1178.36 88 1190.5 88C1201.68 88 1211.73 92.8963 1218.6 100.662C1222.9 98.9447 1227.59 98 1232.5 98C1236 98 1239.38 98.479 1242.6 99.3751C1249.41 92.3592 1258.95 88 1269.5 88C1275.27 88 1280.74 89.3046 1285.63 91.6352C1287.89 79.3807 1296.12 69.2162 1307.19 64.2592C1307.06 63.0228 1307 61.7688 1307 60.5C1307 39.7893 1323.79 23 1344.5 23C1365.21 23 1382 39.7893 1382 60.5Z" fill="#ACC9E6"/>
<path fill-rule="evenodd" clip-rule="evenodd" d="M1392 88.5C1392 103.756 1382.89 116.884 1369.81 122.741C1369.94 123.977 1370 125.231 1370 126.5C1370 147.211 1353.21 164 1332.5 164C1326.73 164 1321.26 162.695 1316.37 160.365C1313.15 177.797 1297.87 191 1279.5 191C1276 191 1272.62 190.521 1269.4 189.625C1262.59 196.641 1253.05 201 1242.5 201C1231.32 201 1221.27 196.104 1214.4 188.338C1210.1 190.055 1205.41 191 1200.5 191C1193.89 191 1187.68 189.289 1182.29 186.287C1175.43 195.232 1164.64 201 1152.5 201C1145.31 201 1138.6 198.978 1132.89 195.472C1126.08 204.88 1115 211 1102.5 211C1081.79 211 1065 194.211 1065 173.5C1065 152.789 1081.79 136 1102.5 136C1109.69 136 1116.4 138.022 1122.11 141.528C1128.92 132.12 1140 126 1152.5 126C1159.11 126 1165.32 127.711 1170.71 130.713C1177.57 121.768 1188.36 116 1200.5 116C1211.68 116 1221.73 120.896 1228.6 128.662C1232.9 126.945 1237.59 126 1242.5 126C1246 126 1249.38 126.479 1252.6 127.375C1259.41 120.359 1268.95 116 1279.5 116C1285.27 116 1290.74 117.305 1295.63 119.635C1297.89 107.381 1306.12 97.2162 1317.19 92.2592C1317.06 91.0228 1317 89.7688 1317 88.5C1317 67.7893 1333.79 51 1354.5 51C1375.21 51 1392 67.7893 1392 88.5Z" fill="white"/>
<g clip-path="url(#clip1_932_254)">
<g filter="url(#filter1_ii_932_254)">
<circle cx="1116" cy="88" r="51" fill="#F7C024"/>
</g>
</g>
</g>
</g>
<defs>
<filter id="filter0_d_932_254" x="1033" y="19" width="331" height="152" filterUnits="userSpaceOnUse" color-interpolation-filters="sRGB">
<feFlood flood-opacity="0" result="BackgroundImageFix"/>
<feColorMatrix in="SourceAlpha" type="matrix" values="0 0 0 0 0 0 0 0 0 0 0 0 0 0 0 0 0 0 127 0" result="hardAlpha"/>
<feOffset dy="10"/>
<feGaussianBlur stdDeviation="5"/>
<feComposite in2="hardAlpha" operator="out"/>
<feColorMatrix type="matrix" values="0 0 0 0 0 0 0 0 0 0 0 0 0 0 0 0 0 0 0.25 0"/>
<feBlend mode="normal" in2="BackgroundImageFix" result="effect1_dropShadow_932_254"/>
<feBlend mode="normal" in="SourceGraphic" in2="effect1_dropShadow_932_254" result="shape"/>
</filter>
<filter id="filter1_ii_932_254" x="1062" y="33" width="108" height="109" filterUnits="userSpaceOnUse" color-interpolation-filters="sRGB">
<feFlood flood-opacity="0" result="BackgroundImageFix"/>
<feBlend mode="normal" in="SourceGraphic" in2="BackgroundImageFix" result="shape"/>
<feColorMatrix in="SourceAlpha" type="matrix" values="0 0 0 0 0 0 0 0 0 0 0 0 0 0 0 0 0 0 127 0" result="hardAlpha"/>
<feOffset dx="3" dy="3"/>
<feGaussianBlur stdDeviation="2"/>
<feComposite in2="hardAlpha" operator="arithmetic" k2="-1" k3="1"/>
<feColorMatrix type="matrix" values="0 0 0 0 1 0 0 0 0 1 0 0 0 0 1 0 0 0 1 0"/>
<feBlend mode="normal" in2="shape" result="effect1_innerShadow_932_254"/>
<feColorMatrix in="SourceAlpha" type="matrix" values="0 0 0 0 0 0 0 0 0 0 0 0 0 0 0 0 0 0 127 0" result="hardAlpha"/>
<feOffset dx="-3" dy="-5"/>
<feGaussianBlur stdDeviation="2"/>
<feComposite in2="hardAlpha" operator="arithmetic" k2="-1" k3="1"/>
<feColorMatrix type="matrix" values="0 0 0 0 0 0 0 0 0 0 0 0 0 0 0 0 0 0 0.4 0"/>
<feBlend mode="normal" in2="effect1_innerShadow_932_254" result="effect2_innerShadow_932_254"/>
</filter>
<clipPath id="clip0_932_254">
<rect x="1043" y="19" width="311" height="132" rx="66" fill="white"/>
</clipPath>
<clipPath id="clip1_932_254">
<rect x="1065" y="37" width="102" height="102" rx="51" fill="white"/>
</clipPath>
</defs>
</svg>
